<svg width="193" height="1068" viewBox="0 0 193 1068" fill="none" xmlns="http://www.w3.org/2000/svg">
<path opacity="0.3" d="M192.06 48.6078L191.339 47.9147L191.326 47.9288L191.313 47.9434L192.06 48.6078ZM89.1343 49.1717L88.3343 49.7718L88.3382 49.7768L89.1343 49.1717ZM84.0586 20.127L85.0586 20.127L85.0586 19.127L84.0586 19.127L84.0586 20.127ZM2 20.127L0.999997 20.127L0.999997 21.127L2 21.127L2 20.127ZM2 0.951754L2 -0.0482461L0.999998 -0.0482461L0.999998 0.951754L2 0.951754ZM199.11 0.951763L200.11 0.951763L200.11 -0.0482374L199.11 -0.0482375L199.11 0.951763ZM179.653 34.7904L180.207 35.6224L179.653 34.7904ZM183.036 20.127L184.036 20.127L184.036 19.127L183.036 19.127L183.036 20.127ZM99.8499 20.127L99.8499 19.127L98.8499 19.127L98.8499 20.127L99.8499 20.127ZM198.11 31.1245C198.11 37.6332 195.86 43.2127 191.339 47.9147L192.781 49.3009C197.659 44.2272 200.11 38.1512 200.11 31.1245L198.11 31.1245ZM191.313 47.9434C187.048 52.7415 180.594 55.2214 171.757 55.2214L171.757 57.2214C180.967 57.2214 188.049 54.6256 192.807 49.2721L191.313 47.9434ZM171.757 55.2214L107.182 55.2214L107.182 57.2214L171.757 57.2214L171.757 55.2214ZM107.182 55.2214C98.8919 55.2214 93.2411 52.9227 89.9305 48.5667L88.3382 49.7768C92.1713 54.8204 98.552 57.2214 107.182 57.2214L107.182 55.2214ZM89.9344 48.5717C86.7047 44.2655 85.0586 38.8483 85.0586 32.2525L83.0586 32.2525C83.0586 39.192 84.7963 45.0543 88.3344 49.7717L89.9344 48.5717ZM85.0586 32.2525L85.0586 20.127L83.0586 20.127L83.0586 32.2525L85.0586 32.2525ZM84.0586 19.127L2 19.127L2 21.127L84.0586 21.127L84.0586 19.127ZM3 20.127L3 0.951754L0.999998 0.951754L0.999997 20.127L3 20.127ZM2 1.95175L199.11 1.95176L199.11 -0.0482375L2 -0.0482461L2 1.95175ZM198.11 0.951763L198.11 31.1245L200.11 31.1245L200.11 0.951763L198.11 0.951763ZM168.937 38.0463C173.885 38.0463 177.701 37.2931 180.207 35.6224L179.098 33.9583C177.092 35.2955 173.765 36.0463 168.937 36.0463L168.937 38.0463ZM180.207 35.6224C182.677 33.976 184.036 31.8116 184.036 29.1506L182.036 29.1506C182.036 31.0014 181.14 32.5968 179.098 33.9583L180.207 35.6224ZM184.036 29.1506L184.036 20.127L182.036 20.127L182.036 29.1506L184.036 29.1506ZM183.036 19.127L99.8499 19.127L99.8499 21.127L183.036 21.127L183.036 19.127ZM98.8499 20.127L98.8499 30.2785L100.85 30.2785L100.85 20.127L98.8499 20.127ZM98.8499 30.2785C98.8499 31.5772 99.1704 32.759 99.8409 33.786C100.508 34.8079 101.484 35.6195 102.708 36.2449C105.129 37.4809 108.633 38.0463 113.103 38.0463L113.103 36.0463C108.738 36.0463 105.615 35.4836 103.618 34.4637C102.634 33.9611 101.953 33.3629 101.516 32.6928C101.082 32.0279 100.85 31.2358 100.85 30.2785L98.8499 30.2785ZM113.103 38.0463L168.937 38.0463L168.937 36.0463L113.103 36.0463L113.103 38.0463ZM55.2958 94.5542L55.3854 95.5502L56.2958 95.4683L56.2958 94.5542L55.2958 94.5542ZM55.2958 77.3529L56.2958 77.3529L56.2958 76.4388L55.3854 76.357L55.2958 77.3529ZM1.99999 72.5591L0.999995 72.5591L0.999995 73.4732L1.91041 73.5551L1.99999 72.5591ZM2 56.2038L2.09117 55.208L0.999996 55.1081L0.999996 56.2038L2 56.2038ZM199.11 74.2511L200.11 74.2511L200.11 73.3384L199.201 73.2552L199.11 74.2511ZM199.11 98.5021L199.207 99.4974L200.11 99.4095L200.11 98.5021L199.11 98.5021ZM1.99999 117.677L0.999993 117.677L0.999993 118.779L2.09683 118.673L1.99999 117.677ZM1.99999 99.348L1.91041 98.352L0.999994 98.4339L0.999994 99.348L1.99999 99.348ZM69.6772 78.4809L69.769 77.4851L68.6772 77.3844L68.6772 78.4809L69.6772 78.4809ZM69.6772 93.1443L68.6772 93.1443L68.6772 94.2367L69.7654 94.1404L69.6772 93.1443ZM146.096 86.3766L146.184 87.3727L147.096 87.2919L147.096 86.3766L146.096 86.3766ZM146.096 85.5306L147.096 85.5306L147.096 84.6186L146.188 84.5348L146.096 85.5306ZM56.2958 94.5542L56.2958 77.3529L54.2958 77.3529L54.2958 94.5542L56.2958 94.5542ZM55.3854 76.357L2.08958 71.5632L1.91041 73.5551L55.2062 78.3489L55.3854 76.357ZM2.99999 72.5591L3 56.2038L0.999996 56.2038L0.999995 72.5591L2.99999 72.5591ZM1.90882 57.1997L199.019 75.2469L199.201 73.2552L2.09117 55.208L1.90882 57.1997ZM198.11 74.2511L198.11 98.5021L200.11 98.5021L200.11 74.2511L198.11 74.2511ZM199.013 97.5068L1.90316 116.682L2.09683 118.673L199.207 99.4974L199.013 97.5068ZM2.99999 117.677L2.99999 99.348L0.999994 99.348L0.999993 117.677L2.99999 117.677ZM2.08958 100.344L55.3854 95.5502L55.2062 93.5582L1.91041 98.352L2.08958 100.344ZM68.6772 78.4809L68.6772 93.1443L70.6772 93.1443L70.6772 78.4809L68.6772 78.4809ZM69.7654 94.1404L146.184 87.3727L146.008 85.3805L69.589 92.1482L69.7654 94.1404ZM147.096 86.3766L147.096 85.5306L145.096 85.5306L145.096 86.3766L147.096 86.3766ZM146.188 84.5348L69.769 77.4851L69.5853 79.4767L146.004 86.5264L146.188 84.5348ZM1.99999 164.672L1.81776 163.689L0.999991 163.841L0.999991 164.672L1.99999 164.672ZM140.456 139.011L140.638 139.995L141.456 139.843L141.456 139.011L140.456 139.011ZM140.456 138.729L141.456 138.729L141.456 137.729L140.456 137.729L140.456 138.729ZM1.99999 138.729L0.999992 138.729L0.999992 139.729L1.99999 139.729L1.99999 138.729ZM1.99999 122.656L1.99999 121.656L0.999993 121.656L0.999993 122.656L1.99999 122.656ZM199.11 122.656L200.11 122.656L200.11 121.656L199.11 121.656L199.11 122.656ZM199.11 144.369L199.285 145.354L200.11 145.207L200.11 144.369L199.11 144.369ZM62.6274 168.62L62.4525 167.636L62.6274 169.62L62.6274 168.62ZM199.11 168.62L200.11 168.62L200.11 167.62L199.11 167.62L199.11 168.62ZM199.11 186.103L199.11 187.103L200.11 187.103L200.11 186.103L199.11 186.103ZM1.99999 186.103L0.99999 186.103L0.99999 187.103L1.99999 187.103L1.99999 186.103ZM2.18223 165.656L140.638 139.995L140.274 138.028L1.81776 163.689L2.18223 165.656ZM141.456 139.011L141.456 138.729L139.456 138.729L139.456 139.011L141.456 139.011ZM140.456 137.729L1.99999 137.729L1.99999 139.729L140.456 139.729L140.456 137.729ZM2.99999 138.729L2.99999 122.656L0.999993 122.656L0.999992 138.729L2.99999 138.729ZM1.99999 123.656L199.11 123.656L199.11 121.656L1.99999 121.656L1.99999 123.656ZM198.11 122.656L198.11 144.369L200.11 144.369L200.11 122.656L198.11 122.656ZM198.935 143.385L62.4525 167.636L62.8024 169.605L199.285 145.354L198.935 143.385ZM62.6274 169.62L199.11 169.62L199.11 167.62L62.6274 167.62L62.6274 169.62ZM198.11 168.62L198.11 186.103L200.11 186.103L200.11 168.62L198.11 168.62ZM199.11 185.103L1.99999 185.103L1.99999 187.103L199.11 187.103L199.11 185.103ZM2.99999 186.103L2.99999 164.672L0.999991 164.672L0.99999 186.103L2.99999 186.103ZM183.036 248.095L182.036 248.095L182.036 249.095L183.036 249.095L183.036 248.095ZM183.036 229.201L184.036 229.201L184.036 228.201L183.036 228.201L183.036 229.201ZM1.99999 229.201L0.999988 229.201L0.999988 230.201L1.99999 230.201L1.99999 229.201ZM1.99999 210.308L1.99999 209.308L0.999989 209.308L0.999989 210.308L1.99999 210.308ZM183.036 210.308L183.036 211.308L184.036 211.308L184.036 210.308L183.036 210.308ZM183.036 191.415L183.036 190.415L182.036 190.415L182.036 191.415L183.036 191.415ZM199.11 191.415L200.11 191.415L200.11 190.415L199.11 190.415L199.11 191.415ZM199.11 248.095L199.11 249.095L200.11 249.095L200.11 248.095L199.11 248.095ZM184.036 248.095L184.036 229.201L182.036 229.201L182.036 248.095L184.036 248.095ZM183.036 228.201L1.99999 228.201L1.99999 230.201L183.036 230.201L183.036 228.201ZM2.99999 229.201L2.99999 210.308L0.999989 210.308L0.999988 229.201L2.99999 229.201ZM1.99999 211.308L183.036 211.308L183.036 209.308L1.99999 209.308L1.99999 211.308ZM184.036 210.308L184.036 191.415L182.036 191.415L182.036 210.308L184.036 210.308ZM183.036 192.415L199.11 192.415L199.11 190.415L183.036 190.415L183.036 192.415ZM198.11 191.415L198.11 248.095L200.11 248.095L200.11 191.415L198.11 191.415ZM199.11 247.095L183.036 247.095L183.036 249.095L199.11 249.095L199.11 247.095ZM199.11 308.167L199.11 309.167L200.11 309.167L200.11 308.167L199.11 308.167ZM1.99998 308.167L0.999985 308.167L0.999985 309.167L1.99998 309.167L1.99998 308.167ZM1.99999 289.274L1.99999 288.274L0.999985 288.274L0.999985 289.274L1.99999 289.274ZM93.3642 289.274L93.3642 290.274L94.3642 290.274L94.3642 289.274L93.3642 289.274ZM93.3642 273.2L94.3642 273.2L94.3642 272.2L93.3642 272.2L93.3642 273.2ZM1.99999 273.2L0.999986 273.2L0.999986 274.2L1.99999 274.2L1.99999 273.2ZM1.99999 254.025L1.99999 253.025L0.999987 253.025L0.999987 254.025L1.99999 254.025ZM199.11 254.025L200.11 254.025L200.11 253.025L199.11 253.025L199.11 254.025ZM199.11 273.2L199.11 274.2L200.11 274.2L200.11 273.2L199.11 273.2ZM107.464 273.2L107.464 272.2L106.464 272.2L106.464 273.2L107.464 273.2ZM107.464 289.274L106.464 289.274L106.464 290.274L107.464 290.274L107.464 289.274ZM199.11 289.274L200.11 289.274L200.11 288.274L199.11 288.274L199.11 289.274ZM199.11 307.167L1.99998 307.167L1.99998 309.167L199.11 309.167L199.11 307.167ZM2.99998 308.167L2.99999 289.274L0.999985 289.274L0.999985 308.167L2.99998 308.167ZM1.99999 290.274L93.3642 290.274L93.3642 288.274L1.99999 288.274L1.99999 290.274ZM94.3642 289.274L94.3642 273.2L92.3642 273.2L92.3642 289.274L94.3642 289.274ZM93.3642 272.2L1.99999 272.2L1.99999 274.2L93.3642 274.2L93.3642 272.2ZM2.99999 273.2L2.99999 254.025L0.999987 254.025L0.999986 273.2L2.99999 273.2ZM1.99999 255.025L199.11 255.025L199.11 253.025L1.99999 253.025L1.99999 255.025ZM198.11 254.025L198.11 273.2L200.11 273.2L200.11 254.025L198.11 254.025ZM199.11 272.2L107.464 272.2L107.464 274.2L199.11 274.2L199.11 272.2ZM106.464 273.2L106.464 289.274L108.464 289.274L108.464 273.2L106.464 273.2ZM107.464 290.274L199.11 290.274L199.11 288.274L107.464 288.274L107.464 290.274ZM198.11 289.274L198.11 308.167L200.11 308.167L200.11 289.274L198.11 289.274ZM183.036 362.461L182.036 362.461L182.036 363.461L183.036 363.461L183.036 362.461ZM199.11 362.461L199.11 363.461L200.11 363.461L200.11 362.461L199.11 362.461ZM199.11 318.188L200.11 318.188L200.11 317.188L199.11 317.188L199.11 318.188ZM1.99998 318.188L1.99998 317.188L0.999984 317.188L0.999984 318.188L1.99998 318.188ZM1.99998 363.871L0.999982 363.871L0.999982 364.871L1.99998 364.871L1.99998 363.871ZM18.0733 363.871L18.0733 364.871L19.0733 364.871L19.0733 363.871L18.0733 363.871ZM18.0733 337.364L18.0733 336.364L17.0733 336.364L17.0733 337.364L18.0733 337.364ZM93.3642 337.364L94.3642 337.364L94.3642 336.364L93.3642 336.364L93.3642 337.364ZM93.3642 356.821L92.3642 356.821L92.3642 357.821L93.3642 357.821L93.3642 356.821ZM107.746 356.821L107.746 357.821L108.746 357.821L108.746 356.821L107.746 356.821ZM107.746 337.364L107.746 336.364L106.746 336.364L106.746 337.364L107.746 337.364ZM183.036 337.364L184.036 337.364L184.036 336.364L183.036 336.364L183.036 337.364ZM210.107 335.39L209.548 334.561L209.107 334.858L209.107 335.39L210.107 335.39ZM234.358 319.034L235.358 319.034L235.358 317.154L233.799 318.205L234.358 319.034ZM234.358 335.954L234.78 336.86L235.358 336.591L235.358 335.954L234.358 335.954ZM210.107 347.233L209.107 347.233L209.107 348.801L210.529 348.14L210.107 347.233ZM183.036 363.461L199.11 363.461L199.11 361.461L183.036 361.461L183.036 363.461ZM200.11 362.461L200.11 318.188L198.11 318.188L198.11 362.461L200.11 362.461ZM199.11 317.188L1.99998 317.188L1.99998 319.188L199.11 319.188L199.11 317.188ZM0.999984 318.188L0.999982 363.871L2.99998 363.871L2.99998 318.188L0.999984 318.188ZM1.99998 364.871L18.0733 364.871L18.0733 362.871L1.99998 362.871L1.99998 364.871ZM19.0733 363.871L19.0733 337.364L17.0733 337.364L17.0733 363.871L19.0733 363.871ZM18.0733 338.364L93.3642 338.364L93.3642 336.364L18.0733 336.364L18.0733 338.364ZM92.3642 337.364L92.3642 356.821L94.3642 356.821L94.3642 337.364L92.3642 337.364ZM93.3642 357.821L107.746 357.821L107.746 355.821L93.3642 355.821L93.3642 357.821ZM108.746 356.821L108.746 337.364L106.746 337.364L106.746 356.821L108.746 356.821ZM107.746 338.364L183.036 338.364L183.036 336.364L107.746 336.364L107.746 338.364ZM182.036 337.364L182.036 362.461L184.036 362.461L184.036 337.364L182.036 337.364ZM210.666 336.219L234.917 319.864L233.799 318.205L209.548 334.561L210.666 336.219ZM233.358 319.034L233.358 335.954L235.358 335.954L235.358 319.034L233.358 319.034ZM233.937 335.047L209.686 346.327L210.529 348.14L234.78 336.86L233.937 335.047ZM211.107 347.233L211.107 335.39L209.107 335.39L209.107 347.233L211.107 347.233ZM106.054 424.062L105.499 424.894L105.511 424.902L105.524 424.91L106.054 424.062ZM100.414 417.012L101.363 416.696L100.307 413.53L99.4476 416.754L100.414 417.012ZM94.7741 424.062L94.2441 423.214L94.2316 423.222L94.2194 423.23L94.7741 424.062ZM10.4596 428.01L10.3076 427.021L10.3016 427.022L10.4596 428.01ZM1.99998 429.984L0.999979 429.984L0.999979 431.75L2.51448 430.841L1.99998 429.984ZM1.99998 410.808L1.4961 409.945L0.99998 410.234L0.99998 410.808L1.99998 410.808ZM13.2795 408.27L13.2083 407.273L13.2795 408.27ZM93.3642 390.787L94.3642 390.787L94.3642 389.787L93.3642 389.787L93.3642 390.787ZM1.99998 390.787L0.999981 390.787L0.999981 391.787L1.99998 391.787L1.99998 390.787ZM1.99998 371.612L1.99998 370.612L0.999982 370.612L0.999982 371.612L1.99998 371.612ZM199.11 371.612L200.11 371.612L200.11 370.612L199.11 370.612L199.11 371.612ZM192.06 419.268L191.339 418.575L191.326 418.589L191.313 418.604L192.06 419.268ZM179.653 405.451L180.207 406.283L179.653 405.451ZM183.036 390.787L184.036 390.787L184.036 389.787L183.036 389.787L183.036 390.787ZM107.464 390.787L107.464 389.787L106.464 389.787L106.464 390.787L107.464 390.787ZM119.589 425.882C113.645 425.882 109.357 424.947 106.584 423.214L105.524 424.91C108.766 426.936 113.502 427.882 119.589 427.882L119.589 425.882ZM106.608 423.23C103.946 421.455 102.222 419.276 101.363 416.696L99.4652 417.328C100.485 420.388 102.521 422.909 105.499 424.894L106.608 423.23ZM99.4476 416.754C98.7745 419.279 97.0858 421.438 94.2441 423.214L95.3041 424.91C98.4781 422.926 100.549 420.385 101.38 417.27L99.4476 416.754ZM94.2194 423.23C91.6478 424.944 87.4727 425.882 81.5207 425.882L81.5207 427.882C87.6001 427.882 92.2606 426.939 95.3288 424.894L94.2194 423.23ZM81.5207 425.882L35.5566 425.882L35.5566 427.882L81.5207 427.882L81.5207 425.882ZM35.5566 425.882C23.7128 425.882 15.2787 426.256 10.3076 427.021L10.6117 428.998C15.4162 428.259 23.7134 427.882 35.5566 427.882L35.5566 425.882ZM10.3016 427.022C7.9412 427.4 6.03529 427.757 4.59263 428.093C3.19505 428.419 2.10784 428.753 1.48548 429.126L2.51448 430.841C2.83207 430.651 3.6248 430.373 5.0471 430.041C6.42431 429.72 8.27824 429.371 10.6176 428.997L10.3016 427.022ZM2.99998 429.984L2.99998 410.808L0.99998 410.808L0.999979 429.984L2.99998 429.984ZM2.50386 411.672C4.5507 410.478 8.11457 409.642 13.3507 409.268L13.2083 407.273C7.91688 407.651 3.96107 408.507 1.4961 409.945L2.50386 411.672ZM13.3507 409.268C18.5791 408.894 25.977 408.707 35.5566 408.707L35.5566 406.707C25.961 406.707 18.5075 406.894 13.2083 407.273L13.3507 409.268ZM35.5566 408.707L79.8287 408.707L79.8287 406.707L35.5566 406.707L35.5566 408.707ZM79.8287 408.707C84.3916 408.707 87.9626 408.141 90.4275 406.909C91.6741 406.286 92.6691 405.476 93.3502 404.454C94.0355 403.426 94.3642 402.242 94.3642 400.939L92.3642 400.939C92.3642 401.892 92.1288 402.681 91.6861 403.345C91.2393 404.015 90.5424 404.615 89.5331 405.12C87.4861 406.144 84.2895 406.707 79.8287 406.707L79.8287 408.707ZM94.3642 400.939L94.3642 390.787L92.3642 390.787L92.3642 400.939L94.3642 400.939ZM93.3642 389.787L1.99998 389.787L1.99998 391.787L93.3642 391.787L93.3642 389.787ZM2.99998 390.787L2.99998 371.612L0.999982 371.612L0.999981 390.787L2.99998 390.787ZM1.99998 372.612L199.11 372.612L199.11 370.612L1.99998 370.612L1.99998 372.612ZM198.11 371.612L198.11 401.785L200.11 401.785L200.11 371.612L198.11 371.612ZM198.11 401.785C198.11 408.293 195.86 413.873 191.339 418.575L192.781 419.961C197.659 414.887 200.11 408.811 200.11 401.785L198.11 401.785ZM191.313 418.604C187.048 423.402 180.594 425.882 171.757 425.882L171.757 427.882C180.967 427.882 188.049 425.286 192.807 419.932L191.313 418.604ZM171.757 425.882L119.589 425.882L119.589 427.882L171.757 427.882L171.757 425.882ZM106.464 400.939C106.464 402.237 106.784 403.419 107.455 404.446C108.122 405.468 109.097 406.28 110.322 406.905C112.743 408.141 116.247 408.707 120.717 408.707L120.717 406.707C116.352 406.707 113.229 406.144 111.232 405.124C110.248 404.621 109.567 404.023 109.129 403.353C108.695 402.688 108.464 401.896 108.464 400.939L106.464 400.939ZM120.717 408.707L168.937 408.707L168.937 406.707L120.717 406.707L120.717 408.707ZM168.937 408.707C173.885 408.707 177.701 407.953 180.207 406.283L179.098 404.619C177.092 405.956 173.765 406.707 168.937 406.707L168.937 408.707ZM180.207 406.283C182.677 404.636 184.036 402.472 184.036 399.811L182.036 399.811C182.036 401.662 181.14 403.257 179.098 404.619L180.207 406.283ZM184.036 399.811L184.036 390.787L182.036 390.787L182.036 399.811L184.036 399.811ZM183.036 389.787L107.464 389.787L107.464 391.787L183.036 391.787L183.036 389.787ZM106.464 390.787L106.464 400.939L108.464 400.939L108.464 390.787L106.464 390.787ZM183.036 457.429L184.036 457.429L184.036 456.429L183.036 456.429L183.036 457.429ZM107.746 457.429L107.746 456.429L106.746 456.429L106.746 457.429L107.746 457.429ZM107.746 476.886L107.746 477.886L108.746 477.886L108.746 476.886L107.746 476.886ZM93.3642 476.886L92.3642 476.886L92.3642 477.886L93.3642 477.886L93.3642 476.886ZM93.3642 457.429L94.3642 457.429L94.3642 456.429L93.3642 456.429L93.3642 457.429ZM18.0733 457.429L18.0733 456.429L17.0733 456.429L17.0733 457.429L18.0733 457.429ZM18.0733 483.936L18.0733 484.936L19.0733 484.936L19.0733 483.936L18.0733 483.936ZM1.99998 483.936L0.999977 483.936L0.999977 484.936L1.99998 484.936L1.99998 483.936ZM1.99998 438.254L1.99998 437.254L0.999979 437.254L0.999979 438.254L1.99998 438.254ZM199.11 438.254L200.11 438.254L200.11 437.254L199.11 437.254L199.11 438.254ZM199.11 482.526L199.11 483.526L200.11 483.526L200.11 482.526L199.11 482.526ZM183.036 482.526L182.036 482.526L182.036 483.526L183.036 483.526L183.036 482.526ZM183.036 456.429L107.746 456.429L107.746 458.429L183.036 458.429L183.036 456.429ZM106.746 457.429L106.746 476.886L108.746 476.886L108.746 457.429L106.746 457.429ZM107.746 475.886L93.3642 475.886L93.3642 477.886L107.746 477.886L107.746 475.886ZM94.3642 476.886L94.3642 457.429L92.3642 457.429L92.3642 476.886L94.3642 476.886ZM93.3642 456.429L18.0733 456.429L18.0733 458.429L93.3642 458.429L93.3642 456.429ZM17.0733 457.429L17.0733 483.936L19.0733 483.936L19.0733 457.429L17.0733 457.429ZM18.0733 482.936L1.99998 482.936L1.99998 484.936L18.0733 484.936L18.0733 482.936ZM2.99998 483.936L2.99998 438.254L0.999979 438.254L0.999977 483.936L2.99998 483.936ZM1.99998 439.254L199.11 439.254L199.11 437.254L1.99998 437.254L1.99998 439.254ZM198.11 438.254L198.11 482.526L200.11 482.526L200.11 438.254L198.11 438.254ZM199.11 481.526L183.036 481.526L183.036 483.526L199.11 483.526L199.11 481.526ZM184.036 482.526L184.036 457.429L182.036 457.429L182.036 482.526L184.036 482.526ZM1.99998 523.897L1.99998 522.897L0.999975 522.897L0.999975 523.897L1.99998 523.897ZM199.11 523.897L200.11 523.897L200.11 522.897L199.11 522.897L199.11 523.897ZM197.7 562.811L196.745 562.513L196.743 562.521L196.74 562.529L197.7 562.811ZM192.906 570.989L192.199 570.282L192.169 570.311L192.143 570.343L192.906 570.989ZM184.728 576.91L184.322 575.997L184.728 576.91ZM7.92173 570.989L7.18457 571.664L7.18692 571.667L7.92173 570.989ZM3.40992 562.811L4.36928 562.529L4.3669 562.521L4.3644 562.513L3.40992 562.811ZM183.036 543.072L184.036 543.072L184.036 542.072L183.036 542.072L183.036 543.072ZM18.0733 543.072L18.0733 542.072L17.0733 542.072L17.0733 543.072L18.0733 543.072ZM20.8932 557.735L20.2685 558.516L20.2864 558.53L20.305 558.544L20.8932 557.735ZM179.935 557.735L179.346 556.927L179.328 556.94L179.31 556.954L179.935 557.735ZM1.99998 524.897L199.11 524.897L199.11 522.897L1.99998 522.897L1.99998 524.897ZM198.11 523.897L198.11 553.787L200.11 553.787L200.11 523.897L198.11 523.897ZM198.11 553.787C198.11 556.689 197.657 559.597 196.745 562.513L198.654 563.109C199.623 560.01 200.11 556.901 200.11 553.787L198.11 553.787ZM196.74 562.529C195.846 565.572 194.331 568.149 192.199 570.282L193.613 571.696C195.993 569.316 197.674 566.442 198.659 563.093L196.74 562.529ZM192.143 570.343C190.186 572.655 187.59 574.544 184.322 575.997L185.134 577.824C188.635 576.269 191.49 574.21 193.669 571.635L192.143 570.343ZM184.322 575.997C181.1 577.429 177.111 578.166 172.321 578.166L172.321 580.166C177.306 580.166 181.589 579.4 185.134 577.824L184.322 575.997ZM172.321 578.166L28.7889 578.166L28.7889 580.166L172.321 580.166L172.321 578.166ZM28.7889 578.166C23.9984 578.166 20.0096 577.429 16.7875 575.997L15.9752 577.824C19.5209 579.4 23.8038 580.166 28.7889 580.166L28.7889 578.166ZM16.7875 575.997C13.5139 574.542 10.8101 572.643 8.65653 570.31L7.18692 571.667C9.54515 574.222 12.4811 576.271 15.9752 577.824L16.7875 575.997ZM8.65888 570.313C6.70301 568.179 5.27005 565.591 4.36928 562.529L2.45055 563.093C3.42969 566.422 5.00463 569.286 7.18457 571.664L8.65888 570.313ZM4.3644 562.513C3.45316 559.597 2.99997 556.689 2.99997 553.787L0.999974 553.787C0.999974 556.901 1.48674 560.01 2.45543 563.109L4.3644 562.513ZM2.99997 553.787L2.99998 523.897L0.999975 523.897L0.999974 553.787L2.99997 553.787ZM183.036 542.072L18.0733 542.072L18.0733 544.072L183.036 544.072L183.036 542.072ZM17.0733 543.072L17.0733 552.377L19.0733 552.377L19.0733 543.072L17.0733 543.072ZM17.0733 552.377C17.0733 554.801 18.195 556.857 20.2685 558.516L21.5179 556.954C19.8315 555.605 19.0733 554.09 19.0733 552.377L17.0733 552.377ZM20.305 558.544C22.6449 560.246 26.4958 560.991 31.6087 560.991L31.6087 558.991C26.5701 558.991 23.2773 558.233 21.4814 556.927L20.305 558.544ZM31.6087 560.991L169.501 560.991L169.501 558.991L31.6087 558.991L31.6087 560.991ZM169.501 560.991C174.597 560.991 178.389 560.252 180.559 558.516L179.31 556.954C177.72 558.226 174.556 558.991 169.501 558.991L169.501 560.991ZM180.523 558.544C182.781 556.902 184.036 554.841 184.036 552.377L182.036 552.377C182.036 554.049 181.224 555.561 179.346 556.927L180.523 558.544ZM184.036 552.377L184.036 543.072L182.036 543.072L182.036 552.377L184.036 552.377ZM183.036 608.061L184.036 608.061L184.036 607.061L183.036 607.061L183.036 608.061ZM107.746 608.061L107.746 607.061L106.746 607.061L106.746 608.061L107.746 608.061ZM107.746 627.518L107.746 628.518L108.746 628.518L108.746 627.518L107.746 627.518ZM93.3641 627.518L92.3641 627.518L92.3641 628.518L93.3641 628.518L93.3641 627.518ZM93.3641 608.061L94.3641 608.061L94.3641 607.061L93.3641 607.061L93.3641 608.061ZM18.0733 608.061L18.0733 607.061L17.0733 607.061L17.0733 608.061L18.0733 608.061ZM18.0733 634.568L18.0733 635.568L19.0733 635.568L19.0733 634.568L18.0733 634.568ZM1.99997 634.568L0.99997 634.568L0.99997 635.568L1.99997 635.568L1.99997 634.568ZM1.99997 588.886L1.99997 587.886L0.999972 587.886L0.999972 588.886L1.99997 588.886ZM199.11 588.886L200.11 588.886L200.11 587.886L199.11 587.886L199.11 588.886ZM199.11 633.158L199.11 634.158L200.11 634.158L200.11 633.158L199.11 633.158ZM183.036 633.158L182.036 633.158L182.036 634.158L183.036 634.158L183.036 633.158ZM183.036 607.061L107.746 607.061L107.746 609.061L183.036 609.061L183.036 607.061ZM106.746 608.061L106.746 627.518L108.746 627.518L108.746 608.061L106.746 608.061ZM107.746 626.518L93.3641 626.518L93.3641 628.518L107.746 628.518L107.746 626.518ZM94.3641 627.518L94.3641 608.061L92.3641 608.061L92.3641 627.518L94.3641 627.518ZM93.3641 607.061L18.0733 607.061L18.0733 609.061L93.3641 609.061L93.3641 607.061ZM17.0733 608.061L17.0733 634.568L19.0733 634.568L19.0733 608.061L17.0733 608.061ZM18.0733 633.568L1.99997 633.568L1.99997 635.568L18.0733 635.568L18.0733 633.568ZM2.99997 634.568L2.99997 588.886L0.999972 588.886L0.99997 634.568L2.99997 634.568ZM1.99997 589.886L199.11 589.886L199.11 587.886L1.99997 587.886L1.99997 589.886ZM198.11 588.886L198.11 633.158L200.11 633.158L200.11 588.886L198.11 588.886ZM199.11 632.158L183.036 632.158L183.036 634.158L199.11 634.158L199.11 632.158ZM184.036 633.158L184.036 608.061L182.036 608.061L182.036 633.158L184.036 633.158ZM1.99997 690.038L2.93629 690.39L2.9461 690.363L2.95445 690.337L1.99997 690.038ZM6.79376 681.861L6.08665 681.154L6.07252 681.168L6.05896 681.182L6.79376 681.861ZM15.2534 676.221L14.8654 675.299L14.8563 675.303L14.8473 675.307L15.2534 676.221ZM185.574 676.221L185.168 677.135L185.177 677.139L185.186 677.143L185.574 676.221ZM194.316 681.861L195.051 681.182L195.037 681.168L195.023 681.154L194.316 681.861ZM199.11 690.038L198.155 690.337L198.164 690.363L198.173 690.39L199.11 690.038ZM199.11 712.879L198.173 712.528L198.161 712.562L198.15 712.597L199.11 712.879ZM194.316 721.057L193.609 720.35L193.595 720.364L193.581 720.379L194.316 721.057ZM185.574 726.979L185.186 726.057L185.177 726.061L185.168 726.065L185.574 726.979ZM119.589 729.235L118.589 729.235L118.589 730.235L119.589 730.235L119.589 729.235ZM119.589 710.06L119.589 709.06L118.589 709.06L118.589 710.06L119.589 710.06ZM181.344 707.804L180.79 706.972L180.773 706.983L180.756 706.995L181.344 707.804ZM181.626 695.396L181.038 696.205L181.626 695.396ZM19.4832 695.396L18.9285 694.564L18.9116 694.575L18.8951 694.587L19.4832 695.396ZM19.4832 707.804L18.8951 708.612L18.9116 708.624L18.9285 708.636L19.4832 707.804ZM81.8026 710.06L82.8026 710.06L82.8026 709.06L81.8026 709.06L81.8026 710.06ZM81.8026 729.235L81.8026 730.235L82.8026 730.235L82.8026 729.235L81.8026 729.235ZM15.2534 726.979L14.8473 727.893L14.8563 727.897L14.8654 727.9L15.2534 726.979ZM6.79376 721.057L7.52858 720.379L7.51501 720.364L7.50087 720.35L6.79376 721.057ZM1.99997 712.879L2.95933 712.597L2.94906 712.562L2.93629 712.528L1.99997 712.879ZM1.30804 699.344C1.30804 696.269 1.85022 693.286 2.93629 690.39L1.06364 689.687C-0.106188 692.807 -0.691957 696.028 -0.691958 699.344L1.30804 699.344ZM2.95445 690.337C3.84779 687.478 5.36743 684.88 7.52858 682.539L6.05896 681.182C3.7083 683.729 2.03207 686.583 1.04548 689.74L2.95445 690.337ZM7.50087 682.568C9.65724 680.411 12.3701 678.597 15.6595 677.135L14.8473 675.307C11.369 676.853 8.44211 678.798 6.08665 681.154L7.50087 682.568ZM15.6415 677.143C19.0629 675.702 23.1548 674.965 27.9429 674.965L27.9429 672.965C22.9554 672.965 18.5876 673.732 14.8654 675.299L15.6415 677.143ZM27.9429 674.965L173.167 674.965L173.167 672.965L27.9429 672.965L27.9429 674.965ZM173.167 674.965C177.957 674.965 181.946 675.703 185.168 677.135L185.98 675.307C182.435 673.731 178.152 672.965 173.167 672.965L173.167 674.965ZM185.186 677.143C188.664 678.607 191.462 680.421 193.609 682.568L195.023 681.154C192.658 678.789 189.628 676.843 185.962 675.299L185.186 677.143ZM193.581 682.539C195.742 684.88 197.262 687.478 198.155 690.337L200.064 689.74C199.078 686.583 197.401 683.729 195.051 681.182L193.581 682.539ZM198.173 690.39C199.259 693.286 199.802 696.269 199.802 699.344L201.802 699.344C201.802 696.028 201.216 692.807 200.046 689.687L198.173 690.39ZM199.802 699.344L199.802 703.856L201.802 703.856L201.802 699.344L199.802 699.344ZM199.802 703.856C199.802 706.736 199.262 709.625 198.173 712.528L200.046 713.231C201.213 710.118 201.802 706.992 201.802 703.856L199.802 703.856ZM198.15 712.597C197.255 715.64 195.741 718.218 193.609 720.35L195.023 721.764C197.403 719.385 199.084 716.511 200.069 713.162L198.15 712.597ZM193.581 720.379C191.437 722.702 188.648 724.6 185.186 726.057L185.962 727.9C189.644 726.35 192.683 724.3 195.051 721.735L193.581 720.379ZM185.168 726.065C181.946 727.497 177.957 728.235 173.167 728.235L173.167 730.235C178.152 730.235 182.435 729.469 185.98 727.893L185.168 726.065ZM173.167 728.235L119.589 728.235L119.589 730.235L173.167 730.235L173.167 728.235ZM120.589 729.235L120.589 710.06L118.589 710.06L118.589 729.235L120.589 729.235ZM119.589 711.06L170.629 711.06L170.629 709.06L119.589 709.06L119.589 711.06ZM170.629 711.06C175.742 711.06 179.593 710.314 181.933 708.612L180.756 706.995C178.96 708.301 175.668 709.06 170.629 709.06L170.629 711.06ZM181.899 708.636C184.337 707.011 185.728 704.95 185.728 702.446L183.728 702.446C183.728 704.078 182.864 705.589 180.79 706.972L181.899 708.636ZM185.728 702.446L185.728 700.754L183.728 700.754L183.728 702.446L185.728 702.446ZM185.728 700.754C185.728 698.29 184.473 696.23 182.215 694.587L181.038 696.205C182.916 697.57 183.728 699.082 183.728 700.754L185.728 700.754ZM182.215 694.587C179.867 692.88 175.817 692.14 170.347 692.14L170.347 694.14C175.781 694.14 179.25 694.904 181.038 696.205L182.215 694.587ZM170.347 692.14L30.7628 692.14L30.7628 694.14L170.347 694.14L170.347 692.14ZM30.7628 692.14C25.4574 692.14 21.4427 692.888 18.9285 694.564L20.0379 696.228C22.0356 694.896 25.5406 694.14 30.7628 694.14L30.7628 692.14ZM18.8951 694.587C16.6369 696.23 15.3814 698.29 15.3814 700.754L17.3814 700.754C17.3814 699.082 18.1937 697.57 20.0714 696.205L18.8951 694.587ZM15.3814 700.754L15.3814 702.446L17.3814 702.446L17.3814 700.754L15.3814 700.754ZM15.3814 702.446C15.3814 704.91 16.6369 706.97 18.8951 708.612L20.0714 706.995C18.1937 705.629 17.3814 704.118 17.3814 702.446L15.3814 702.446ZM18.9285 708.636C21.4427 710.312 25.4574 711.06 30.7628 711.06L30.7628 709.06C25.5406 709.06 22.0356 708.303 20.0379 706.972L18.9285 708.636ZM30.7628 711.06L81.8026 711.06L81.8026 709.06L30.7628 709.06L30.7628 711.06ZM80.8026 710.06L80.8026 729.235L82.8026 729.235L82.8026 710.06L80.8026 710.06ZM81.8026 728.235L27.9429 728.235L27.9429 730.235L81.8026 730.235L81.8026 728.235ZM27.9429 728.235C23.1548 728.235 19.0629 727.498 15.6415 726.057L14.8654 727.9C18.5876 729.468 22.9553 730.235 27.9429 730.235L27.9429 728.235ZM15.6595 726.065C12.386 724.61 9.68216 722.712 7.52858 720.379L6.05896 721.735C8.41719 724.29 11.3531 726.34 14.8473 727.893L15.6595 726.065ZM7.50087 720.35C5.36859 718.218 3.85425 715.64 2.95933 712.597L1.0406 713.162C2.02562 716.511 3.70714 719.385 6.08665 721.764L7.50087 720.35ZM2.93629 712.528C1.84756 709.625 1.30804 706.736 1.30804 703.856L-0.691958 703.856C-0.691958 706.992 -0.103533 710.118 1.06364 713.231L2.93629 712.528ZM1.30804 703.856L1.30804 699.344L-0.691958 699.344L-0.691958 703.856L1.30804 703.856ZM55.2957 772.813L55.3853 773.809L56.2957 773.727L56.2957 772.813L55.2957 772.813ZM55.2957 755.612L56.2957 755.612L56.2957 754.698L55.3853 754.616L55.2957 755.612ZM1.99997 750.818L0.999965 750.818L0.999965 751.732L1.91038 751.814L1.99997 750.818ZM1.99997 734.463L2.09114 733.467L0.999966 733.367L0.999966 734.463L1.99997 734.463ZM199.11 752.51L200.11 752.51L200.11 751.597L199.201 751.514L199.11 752.51ZM199.11 776.761L199.207 777.756L200.11 777.668L200.11 776.761L199.11 776.761ZM1.99996 795.936L0.999963 795.936L0.999963 797.038L2.0968 796.931L1.99996 795.936ZM1.99996 777.607L1.91038 776.611L0.999964 776.693L0.999964 777.607L1.99996 777.607ZM69.6771 756.74L69.769 755.744L68.6771 755.643L68.6771 756.74L69.6771 756.74ZM69.6771 771.403L68.6771 771.403L68.6771 772.495L69.7653 772.399L69.6771 771.403ZM146.096 764.635L146.184 765.631L147.096 765.551L147.096 764.635L146.096 764.635ZM146.096 763.789L147.096 763.789L147.096 762.877L146.188 762.794L146.096 763.789ZM56.2957 772.813L56.2957 755.612L54.2957 755.612L54.2957 772.813L56.2957 772.813ZM55.3853 754.616L2.08955 749.822L1.91038 751.814L55.2062 756.608L55.3853 754.616ZM2.99997 750.818L2.99997 734.463L0.999966 734.463L0.999965 750.818L2.99997 750.818ZM1.90879 735.458L199.019 753.506L199.201 751.514L2.09114 733.467L1.90879 735.458ZM198.11 752.51L198.11 776.761L200.11 776.761L200.11 752.51L198.11 752.51ZM199.013 775.765L1.90313 794.941L2.0968 796.931L199.207 777.756L199.013 775.765ZM2.99996 795.936L2.99996 777.607L0.999964 777.607L0.999963 795.936L2.99996 795.936ZM2.08955 778.603L55.3853 773.809L55.2062 771.817L1.91038 776.611L2.08955 778.603ZM68.6771 756.74L68.6771 771.403L70.6771 771.403L70.6771 756.74L68.6771 756.74ZM69.7653 772.399L146.184 765.631L146.008 763.639L69.5889 770.407L69.7653 772.399ZM147.096 764.635L147.096 763.789L145.096 763.789L145.096 764.635L147.096 764.635ZM146.188 762.794L69.769 755.744L69.5853 757.735L146.004 764.785L146.188 762.794ZM106.054 853.929L105.499 854.761L105.511 854.769L105.524 854.777L106.054 853.929ZM100.414 846.879L101.363 846.563L100.307 843.397L99.4476 846.621L100.414 846.879ZM94.7741 853.929L94.2441 853.081L94.2316 853.088L94.2194 853.097L94.7741 853.929ZM10.4596 857.876L10.3075 856.888L10.3016 856.889L10.4596 857.876ZM1.99996 859.85L0.99996 859.85L0.99996 861.617L2.51446 860.708L1.99996 859.85ZM1.99996 840.675L1.49609 839.811L0.999961 840.101L0.999961 840.675L1.99996 840.675ZM13.2795 838.137L13.2082 837.14L13.2795 838.137ZM93.3641 820.654L94.3641 820.654L94.3641 819.654L93.3641 819.654L93.3641 820.654ZM1.99996 820.654L0.999962 820.654L0.999962 821.654L1.99996 821.654L1.99996 820.654ZM1.99996 801.479L1.99996 800.479L0.999963 800.479L0.999963 801.479L1.99996 801.479ZM199.11 801.479L200.11 801.479L200.11 800.479L199.11 800.479L199.11 801.479ZM192.06 849.135L191.339 848.442L191.326 848.456L191.313 848.47L192.06 849.135ZM179.653 835.317L180.207 836.149L179.653 835.317ZM183.036 820.654L184.036 820.654L184.036 819.654L183.036 819.654L183.036 820.654ZM107.464 820.654L107.464 819.654L106.464 819.654L106.464 820.654L107.464 820.654ZM119.589 855.748C113.645 855.748 109.357 854.814 106.584 853.081L105.524 854.777C108.766 856.803 113.501 857.748 119.589 857.748L119.589 855.748ZM106.608 853.097C103.946 851.322 102.222 849.143 101.363 846.563L99.4652 847.195C100.485 850.255 102.521 852.776 105.499 854.761L106.608 853.097ZM99.4476 846.621C98.7744 849.146 97.0858 851.304 94.2441 853.081L95.3041 854.777C98.4781 852.793 100.549 850.252 101.38 847.137L99.4476 846.621ZM94.2194 853.097C91.6478 854.811 87.4727 855.748 81.5206 855.748L81.5206 857.748C87.6001 857.748 92.2606 856.806 95.3288 854.761L94.2194 853.097ZM81.5206 855.748L35.5566 855.748L35.5566 857.748L81.5206 857.748L81.5206 855.748ZM35.5566 855.748C23.7128 855.748 15.2786 856.123 10.3075 856.888L10.6117 858.865C15.4162 858.126 23.7133 857.748 35.5566 857.748L35.5566 855.748ZM10.3016 856.889C7.94118 857.267 6.03527 857.623 4.59261 857.96C3.19503 858.286 2.10782 858.619 1.48546 858.993L2.51446 860.708C2.83205 860.517 3.62478 860.24 5.04708 859.908C6.42429 859.586 8.27822 859.238 10.6176 858.864L10.3016 856.889ZM2.99996 859.85L2.99996 840.675L0.999961 840.675L0.99996 859.85L2.99996 859.85ZM2.50384 841.539C4.55068 840.345 8.11455 839.509 13.3507 839.135L13.2082 837.14C7.91686 837.518 3.96105 838.373 1.49609 839.811L2.50384 841.539ZM13.3507 839.135C18.579 838.761 25.9769 838.573 35.5566 838.573L35.5566 836.573C25.961 836.573 18.5075 836.761 13.2082 837.14L13.3507 839.135ZM35.5566 838.573L79.8287 838.573L79.8287 836.573L35.5566 836.573L35.5566 838.573ZM79.8287 838.573C84.3916 838.573 87.9626 838.008 90.4275 836.776C91.6741 836.153 92.6691 835.343 93.3502 834.321C94.0355 833.293 94.3641 832.109 94.3641 830.806L92.3641 830.806C92.3641 831.759 92.1288 832.548 91.6861 833.212C91.2393 833.882 90.5424 834.482 89.5331 834.987C87.4861 836.01 84.2894 836.573 79.8287 836.573L79.8287 838.573ZM94.3641 830.806L94.3641 820.654L92.3641 820.654L92.3641 830.806L94.3641 830.806ZM93.3641 819.654L1.99996 819.654L1.99996 821.654L93.3641 821.654L93.3641 819.654ZM2.99996 820.654L2.99996 801.479L0.999963 801.479L0.999962 820.654L2.99996 820.654ZM1.99996 802.479L199.11 802.479L199.11 800.479L1.99996 800.479L1.99996 802.479ZM198.11 801.479L198.11 831.652L200.11 831.652L200.11 801.479L198.11 801.479ZM198.11 831.652C198.11 838.16 195.86 843.74 191.339 848.442L192.781 849.828C197.659 844.754 200.11 838.678 200.11 831.652L198.11 831.652ZM191.313 848.47C187.048 853.268 180.594 855.748 171.757 855.748L171.757 857.748C180.967 857.748 188.049 855.153 192.807 849.799L191.313 848.47ZM171.757 855.748L119.589 855.748L119.589 857.748L171.757 857.748L171.757 855.748ZM106.464 830.806C106.464 832.104 106.784 833.286 107.455 834.313C108.122 835.335 109.097 836.147 110.322 836.772C112.743 838.008 116.246 838.573 120.717 838.573L120.717 836.573C116.352 836.573 113.229 836.011 111.232 834.991C110.247 834.488 109.567 833.89 109.129 833.22C108.695 832.555 108.464 831.763 108.464 830.806L106.464 830.806ZM120.717 838.573L168.937 838.573L168.937 836.573L120.717 836.573L120.717 838.573ZM168.937 838.573C173.885 838.573 177.701 837.82 180.207 836.149L179.098 834.485C177.092 835.823 173.765 836.573 168.937 836.573L168.937 838.573ZM180.207 836.149C182.677 834.503 184.036 832.339 184.036 829.678L182.036 829.678C182.036 831.528 181.14 833.124 179.098 834.485L180.207 836.149ZM184.036 829.678L184.036 820.654L182.036 820.654L182.036 829.678L184.036 829.678ZM183.036 819.654L107.464 819.654L107.464 821.654L183.036 821.654L183.036 819.654ZM106.464 820.654L106.464 830.806L108.464 830.806L108.464 820.654L106.464 820.654ZM183.036 920.57L182.036 920.57L182.036 921.57L183.036 921.57L183.036 920.57ZM183.036 901.677L184.036 901.677L184.036 900.677L183.036 900.677L183.036 901.677ZM1.99996 901.677L0.999959 901.677L0.999959 902.677L1.99996 902.677L1.99996 901.677ZM1.99996 882.784L1.99996 881.784L0.999959 881.784L0.999959 882.784L1.99996 882.784ZM183.036 882.784L183.036 883.784L184.036 883.784L184.036 882.784L183.036 882.784ZM183.036 863.891L183.036 862.891L182.036 862.891L182.036 863.891L183.036 863.891ZM199.11 863.891L200.11 863.891L200.11 862.891L199.11 862.891L199.11 863.891ZM199.11 920.57L199.11 921.57L200.11 921.57L200.11 920.57L199.11 920.57ZM184.036 920.57L184.036 901.677L182.036 901.677L182.036 920.57L184.036 920.57ZM183.036 900.677L1.99996 900.677L1.99996 902.677L183.036 902.677L183.036 900.677ZM2.99996 901.677L2.99996 882.784L0.999959 882.784L0.999959 901.677L2.99996 901.677ZM1.99996 883.784L183.036 883.784L183.036 881.784L1.99996 881.784L1.99996 883.784ZM184.036 882.784L184.036 863.891L182.036 863.891L182.036 882.784L184.036 882.784ZM183.036 864.891L199.11 864.891L199.11 862.891L183.036 862.891L183.036 864.891ZM198.11 863.891L198.11 920.57L200.11 920.57L200.11 863.891L198.11 863.891ZM199.11 919.57L183.036 919.57L183.036 921.57L199.11 921.57L199.11 919.57ZM199.11 945.676L199.11 946.676L200.11 946.676L200.11 945.676L199.11 945.676ZM1.99996 945.676L0.999957 945.676L0.999957 946.676L1.99996 946.676L1.99996 945.676ZM1.99996 926.501L1.99996 925.501L0.999958 925.501L0.999958 926.501L1.99996 926.501ZM199.11 926.501L200.11 926.501L200.11 925.501L199.11 925.501L199.11 926.501ZM199.11 944.676L1.99996 944.676L1.99996 946.676L199.11 946.676L199.11 944.676ZM2.99996 945.676L2.99996 926.501L0.999958 926.501L0.999957 945.676L2.99996 945.676ZM1.99996 927.501L199.11 927.501L199.11 925.501L1.99996 925.501L1.99996 927.501ZM198.11 926.501L198.11 945.676L200.11 945.676L200.11 926.501L198.11 926.501ZM183.036 974.866L184.036 974.866L184.036 973.866L183.036 973.866L183.036 974.866ZM107.746 974.866L107.746 973.866L106.746 973.866L106.746 974.866L107.746 974.866ZM107.746 994.323L107.746 995.323L108.746 995.323L108.746 994.323L107.746 994.323ZM93.3641 994.323L92.3641 994.323L92.3641 995.323L93.3641 995.323L93.3641 994.323ZM93.3641 974.866L94.3641 974.866L94.3641 973.866L93.3641 973.866L93.3641 974.866ZM18.0733 974.866L18.0733 973.866L17.0733 973.866L17.0733 974.866L18.0733 974.866ZM18.0733 1001.37L18.0733 1002.37L19.0733 1002.37L19.0733 1001.37L18.0733 1001.37ZM1.99995 1001.37L0.999954 1001.37L0.999954 1002.37L1.99995 1002.37L1.99995 1001.37ZM1.99996 955.691L1.99996 954.691L0.999956 954.691L0.999956 955.691L1.99996 955.691ZM199.11 955.691L200.11 955.691L200.11 954.691L199.11 954.691L199.11 955.691ZM199.11 999.963L199.11 1000.96L200.11 1000.96L200.11 999.963L199.11 999.963ZM183.036 999.963L182.036 999.963L182.036 1000.96L183.036 1000.96L183.036 999.963ZM183.036 973.866L107.746 973.866L107.746 975.866L183.036 975.866L183.036 973.866ZM106.746 974.866L106.746 994.323L108.746 994.323L108.746 974.866L106.746 974.866ZM107.746 993.323L93.3641 993.323L93.3641 995.323L107.746 995.323L107.746 993.323ZM94.3641 994.323L94.3641 974.866L92.3641 974.866L92.3641 994.323L94.3641 994.323ZM93.3641 973.866L18.0733 973.866L18.0733 975.866L93.3641 975.866L93.3641 973.866ZM17.0733 974.866L17.0733 1001.37L19.0733 1001.37L19.0733 974.866L17.0733 974.866ZM18.0733 1000.37L1.99995 1000.37L1.99995 1002.37L18.0733 1002.37L18.0733 1000.37ZM2.99995 1001.37L2.99996 955.691L0.999956 955.691L0.999954 1001.37L2.99995 1001.37ZM1.99996 956.691L199.11 956.691L199.11 954.691L1.99996 954.691L1.99996 956.691ZM198.11 955.691L198.11 999.963L200.11 999.963L200.11 955.691L198.11 955.691ZM199.11 998.963L183.036 998.963L183.036 1000.96L199.11 1000.96L199.11 998.963ZM184.036 999.963L184.036 974.866L182.036 974.866L182.036 999.963L184.036 999.963ZM106.054 1061.56L105.499 1062.4L105.511 1062.4L105.524 1062.41L106.054 1061.56ZM100.414 1054.51L101.363 1054.2L100.307 1051.03L99.4476 1054.26L100.414 1054.51ZM94.7741 1061.56L94.2441 1060.72L94.2316 1060.72L94.2194 1060.73L94.7741 1061.56ZM10.4596 1065.51L10.3075 1064.52L10.3016 1064.52L10.4596 1065.51ZM1.99995 1067.49L0.999951 1067.49L0.999951 1069.25L2.51445 1068.34L1.99995 1067.49ZM1.99995 1048.31L1.49608 1047.45L0.999952 1047.74L0.999952 1048.31L1.99995 1048.31ZM13.2795 1045.77L13.2082 1044.78L13.2795 1045.77ZM93.3641 1028.29L94.3641 1028.29L94.3641 1027.29L93.3641 1027.29L93.3641 1028.29ZM1.99995 1028.29L0.999953 1028.29L0.999953 1029.29L1.99995 1029.29L1.99995 1028.29ZM1.99995 1009.11L1.99995 1008.11L0.999954 1008.11L0.999954 1009.11L1.99995 1009.11ZM199.11 1009.11L200.11 1009.11L200.11 1008.11L199.11 1008.11L199.11 1009.11ZM192.06 1056.77L191.339 1056.08L191.326 1056.09L191.313 1056.11L192.06 1056.77ZM179.653 1042.95L180.207 1043.79L179.653 1042.95ZM183.036 1028.29L184.036 1028.29L184.036 1027.29L183.036 1027.29L183.036 1028.29ZM107.464 1028.29L107.464 1027.29L106.464 1027.29L106.464 1028.29L107.464 1028.29ZM119.589 1063.38C113.645 1063.38 109.357 1062.45 106.584 1060.72L105.524 1062.41C108.766 1064.44 113.501 1065.38 119.589 1065.38L119.589 1063.38ZM106.608 1060.73C103.946 1058.96 102.222 1056.78 101.363 1054.2L99.4651 1054.83C100.485 1057.89 102.521 1060.41 105.499 1062.4L106.608 1060.73ZM99.4476 1054.26C98.7744 1056.78 97.0858 1058.94 94.2441 1060.72L95.3041 1062.41C98.4781 1060.43 100.549 1057.89 101.38 1054.77L99.4476 1054.26ZM94.2194 1060.73C91.6478 1062.45 87.4727 1063.38 81.5206 1063.38L81.5206 1065.38C87.6 1065.38 92.2606 1064.44 95.3288 1062.4L94.2194 1060.73ZM81.5206 1063.38L35.5565 1063.38L35.5565 1065.38L81.5206 1065.38L81.5206 1063.38ZM35.5565 1063.38C23.7128 1063.38 15.2786 1063.76 10.3075 1064.52L10.6117 1066.5C15.4162 1065.76 23.7133 1065.38 35.5565 1065.38L35.5565 1063.38ZM10.3016 1064.52C7.94117 1064.9 6.03526 1065.26 4.5926 1065.6C3.19502 1065.92 2.10782 1066.26 1.48546 1066.63L2.51445 1068.34C2.83204 1068.15 3.62477 1067.88 5.04707 1067.54C6.42428 1067.22 8.27821 1066.87 10.6176 1066.5L10.3016 1064.52ZM2.99995 1067.49L2.99995 1048.31L0.999952 1048.31L0.999951 1067.49L2.99995 1067.49ZM2.50383 1049.17C4.55067 1047.98 8.11455 1047.14 13.3507 1046.77L13.2082 1044.78C7.91685 1045.15 3.96104 1046.01 1.49608 1047.45L2.50383 1049.17ZM13.3507 1046.77C18.579 1046.4 25.9769 1046.21 35.5565 1046.21L35.5565 1044.21C25.961 1044.21 18.5075 1044.4 13.2082 1044.78L13.3507 1046.77ZM35.5565 1046.21L79.8287 1046.21L79.8287 1044.21L35.5565 1044.21L35.5565 1046.21ZM79.8287 1046.21C84.3916 1046.21 87.9626 1045.64 90.4275 1044.41C91.6741 1043.79 92.6691 1042.98 93.3502 1041.96C94.0355 1040.93 94.3641 1039.74 94.3641 1038.44L92.3641 1038.44C92.3641 1039.39 92.1288 1040.18 91.6861 1040.85C91.2393 1041.52 90.5424 1042.12 89.5331 1042.62C87.4861 1043.65 84.2894 1044.21 79.8287 1044.21L79.8287 1046.21ZM94.3641 1038.44L94.3641 1028.29L92.3641 1028.29L92.3641 1038.44L94.3641 1038.44ZM93.3641 1027.29L1.99995 1027.29L1.99995 1029.29L93.3641 1029.29L93.3641 1027.29ZM2.99995 1028.29L2.99995 1009.11L0.999954 1009.11L0.999953 1028.29L2.99995 1028.29ZM1.99995 1010.11L199.11 1010.11L199.11 1008.11L1.99995 1008.11L1.99995 1010.11ZM198.11 1009.11L198.11 1039.29L200.11 1039.29L200.11 1009.11L198.11 1009.11ZM198.11 1039.29C198.11 1045.8 195.86 1051.38 191.339 1056.08L192.781 1057.46C197.659 1052.39 200.11 1046.31 200.11 1039.29L198.11 1039.29ZM191.313 1056.11C187.048 1060.9 180.594 1063.38 171.757 1063.38L171.757 1065.38C180.967 1065.38 188.049 1062.79 192.807 1057.43L191.313 1056.11ZM171.757 1063.38L119.589 1063.38L119.589 1065.38L171.757 1065.38L171.757 1063.38ZM106.464 1038.44C106.464 1039.74 106.784 1040.92 107.455 1041.95C108.122 1042.97 109.097 1043.78 110.322 1044.41C112.743 1045.64 116.246 1046.21 120.717 1046.21L120.717 1044.21C116.352 1044.21 113.229 1043.65 111.232 1042.63C110.247 1042.12 109.567 1041.53 109.129 1040.86C108.695 1040.19 108.464 1039.4 108.464 1038.44L106.464 1038.44ZM120.717 1046.21L168.937 1046.21L168.937 1044.21L120.717 1044.21L120.717 1046.21ZM168.937 1046.21C173.885 1046.21 177.701 1045.46 180.207 1043.79L179.098 1042.12C177.092 1043.46 173.765 1044.21 168.937 1044.21L168.937 1046.21ZM180.207 1043.79C182.677 1042.14 184.036 1039.97 184.036 1037.31L182.036 1037.31C182.036 1039.16 181.14 1040.76 179.098 1042.12L180.207 1043.79ZM184.036 1037.31L184.036 1028.29L182.036 1028.29L182.036 1037.31L184.036 1037.31ZM183.036 1027.29L107.464 1027.29L107.464 1029.29L183.036 1029.29L183.036 1027.29ZM106.464 1028.29L106.464 1038.44L108.464 1038.44L108.464 1028.29L106.464 1028.29Z" fill="white"/>
</svg>
