<svg width="250" height="147" viewBox="0 0 564 247" fill="none" xmlns="http://www.w3.org/2000/svg">
<path d="M81.2552 22.578L80.5621 23.2988L80.5762 23.3124L80.5908 23.3254L81.2552 22.578ZM81.8588 132.74L82.4588 133.54L82.4639 133.536L81.8588 132.74ZM50.7721 138.172V137.172H49.7721V138.172H50.7721ZM50.7721 226V227H51.7721V226H50.7721ZM30.2488 226H29.2488V227H30.2488V226ZM30.2488 15.0326L30.2488 14.0326H29.2488L29.2488 15.0326H30.2488ZM66.4664 35.8577L67.2984 35.303L67.2984 35.303L66.4664 35.8577ZM50.7721 32.236V31.236H49.7721V32.236H50.7721ZM50.7721 121.271H49.7721V122.271H50.7721V121.271ZM62.5428 16.0326C69.5273 16.0326 75.5166 18.4473 80.5621 23.2988L81.9483 21.8571C76.531 16.6482 70.0453 14.0326 62.5428 14.0326V16.0326ZM80.5908 23.3254C85.7458 27.9075 88.4042 34.8371 88.4042 44.3085H90.4042C90.4042 34.4638 87.6299 26.9064 81.9196 21.8306L80.5908 23.3254ZM88.4042 44.3085L88.4042 113.424H90.4042L90.4042 44.3085H88.4042ZM88.4042 113.424C88.4042 122.308 85.9402 128.382 81.2538 131.944L82.4639 133.536C87.8379 129.452 90.4042 122.648 90.4042 113.424H88.4042ZM81.2588 131.94C76.6354 135.407 70.8217 137.172 63.7501 137.172V139.172C71.1654 139.172 77.4242 137.316 82.4588 133.54L81.2588 131.94ZM63.7501 137.172H50.7721V139.172H63.7501V137.172ZM49.7721 138.172L49.7721 226H51.7721L51.7721 138.172H49.7721ZM50.7721 225L30.2488 225V227L50.7721 227V225ZM31.2488 226L31.2488 15.0326H29.2488L29.2488 226H31.2488ZM30.2488 16.0326L62.5428 16.0326V14.0326L30.2488 14.0326L30.2488 16.0326ZM69.8809 47.3267C69.8809 42.0354 69.0748 37.9677 67.2984 35.303L65.6343 36.4124C67.0773 38.5769 67.8809 42.1551 67.8809 47.3267H69.8809ZM67.2984 35.303C65.5463 32.6748 63.2497 31.236 60.4301 31.236V33.236C62.4396 33.236 64.1671 34.2117 65.6343 36.4124L67.2984 35.303ZM60.4301 31.236H50.7721V33.236L60.4301 33.236V31.236ZM49.7721 32.236L49.7721 121.271H51.7721L51.7721 32.236H49.7721ZM50.7721 122.271H61.6374V120.271H50.7721V122.271ZM61.6374 122.271C63.0153 122.271 64.2665 121.931 65.353 121.222C66.4343 120.516 67.2956 119.482 67.9606 118.179C69.2759 115.604 69.8809 111.867 69.8809 107.086L67.8809 107.086C67.8809 111.761 67.2786 115.117 66.1794 117.27C65.6372 118.332 64.9893 119.071 64.2598 119.547C63.5354 120.02 62.6739 120.271 61.6374 120.271V122.271ZM69.8809 107.086L69.8809 47.3267H67.8809L67.8809 107.086L69.8809 107.086ZM130.432 168.957L131.428 168.868L131.346 167.957H130.432V168.957ZM112.021 168.957V167.957H111.107L111.025 168.868L112.021 168.957ZM106.89 226V227H107.805L107.886 226.09L106.89 226ZM89.3853 226L88.3895 225.909L88.2896 227H89.3853V226ZM108.701 15.0326V14.0326L107.789 14.0326L107.706 14.9415L108.701 15.0326ZM134.657 15.0326L135.653 14.9358L135.565 14.0326H134.657V15.0326ZM155.181 226V227H156.283L156.176 225.903L155.181 226ZM135.563 226L134.567 226.09L134.649 227H135.563V226ZM113.229 153.565L112.233 153.473L112.132 154.565H113.229V153.565ZM128.923 153.565V154.565H130.015L129.919 153.477L128.923 153.565ZM121.679 71.7735L122.675 71.6853L122.595 70.7735H121.679V71.7735ZM120.774 71.7735V70.7735H119.862L119.778 71.6816L120.774 71.7735ZM130.432 167.957H112.021V169.957H130.432V167.957ZM111.025 168.868L105.894 225.91L107.886 226.09L113.017 169.047L111.025 168.868ZM106.89 225H89.3853V227H106.89V225ZM90.3811 226.091L109.697 15.1238L107.706 14.9415L88.3895 225.909L90.3811 226.091ZM108.701 16.0326L134.657 16.0326V14.0326L108.701 14.0326V16.0326ZM133.662 15.1295L154.185 226.097L156.176 225.903L135.653 14.9358L133.662 15.1295ZM155.181 225L135.563 225V227L155.181 227V225ZM136.559 225.91L131.428 168.868L129.436 169.047L134.567 226.09L136.559 225.91ZM113.229 154.565H128.923V152.565H113.229V154.565ZM129.919 153.477L122.675 71.6853L120.683 71.8617L127.927 153.653L129.919 153.477ZM121.679 70.7735H120.774V72.7735H121.679V70.7735ZM119.778 71.6816L112.233 153.473L114.224 153.657L121.77 71.8654L119.778 71.6816ZM205.48 226L204.496 226.182L204.648 227H205.48V226ZM178.015 77.8098L178.998 77.6275L178.846 76.8098H178.015V77.8098ZM177.713 77.8098V76.8098H176.713V77.8098H177.713ZM177.713 226V227H178.713V226H177.713ZM160.509 226H159.509V227H160.509V226ZM160.509 15.0326V14.0326H159.509V15.0326H160.509ZM183.749 15.0326L184.734 14.8577L184.587 14.0326H183.749V15.0326ZM209.705 161.11L208.72 161.285L210.705 161.11H209.705ZM209.705 15.0326V14.0326L208.705 14.0326V15.0326L209.705 15.0326ZM228.417 15.0326H229.417V14.0326H228.417V15.0326ZM228.417 226V227H229.417V226H228.417ZM206.463 225.818L178.998 77.6275L177.031 77.992L204.496 226.182L206.463 225.818ZM178.015 76.8098H177.713V78.8098H178.015V76.8098ZM176.713 77.8098L176.713 226H178.713L178.713 77.8098H176.713ZM177.713 225H160.509V227H177.713V225ZM161.509 226L161.509 15.0326H159.509L159.509 226H161.509ZM160.509 16.0326L183.749 16.0326V14.0326L160.509 14.0326V16.0326ZM182.764 15.2076L208.72 161.285L210.69 160.935L184.734 14.8577L182.764 15.2076ZM210.705 161.11L210.705 15.0326L208.705 15.0326L208.705 161.11H210.705ZM209.705 16.0326L228.417 16.0326V14.0326L209.705 14.0326V16.0326ZM227.417 15.0326L227.417 226H229.417L229.417 15.0326H227.417ZM228.417 225H205.48V227H228.417V225ZM294.767 32.236V33.236H295.767V32.236H294.767ZM274.545 32.236V31.236H273.545V32.236H274.545ZM274.545 226V227H275.545V226H274.545ZM254.324 226H253.324V227H254.324V226ZM254.324 32.236H255.324V31.236H254.324V32.236ZM234.102 32.236H233.102V33.236H234.102V32.236ZM234.102 15.0326V14.0326H233.102V15.0326H234.102ZM294.767 15.0326H295.767V14.0326H294.767V15.0326ZM294.767 31.236L274.545 31.236V33.236L294.767 33.236V31.236ZM273.545 32.236L273.545 226H275.545L275.545 32.236H273.545ZM274.545 225L254.324 225V227L274.545 227V225ZM255.324 226L255.324 32.236H253.324L253.324 226H255.324ZM254.324 31.236L234.102 31.236V33.236H254.324V31.236ZM235.102 32.236V15.0326H233.102V32.236H235.102ZM234.102 16.0326L294.767 16.0326V14.0326L234.102 14.0326V16.0326ZM293.767 15.0326V32.236H295.767V15.0326H293.767ZM359.062 15.0326H360.062V14.0326H359.062V15.0326ZM359.062 226V227H360.062V226H359.062ZM338.841 226H337.841V227H338.841V226ZM338.841 128.213H339.841V127.213H338.841V128.213ZM321.638 128.213V127.213H320.638V128.213H321.638ZM321.638 226V227H322.638V226H321.638ZM301.114 226H300.114V227H301.114V226ZM301.114 15.0326V14.0326H300.114V15.0326H301.114ZM321.638 15.0326H322.638V14.0326H321.638V15.0326ZM321.638 113.122H320.638V114.122H321.638V113.122ZM338.841 113.122V114.122H339.841V113.122H338.841ZM338.841 15.0326V14.0326H337.841V15.0326H338.841ZM358.062 15.0326L358.062 226H360.062L360.062 15.0326H358.062ZM359.062 225H338.841V227H359.062V225ZM339.841 226V128.213H337.841V226H339.841ZM338.841 127.213H321.638V129.213H338.841V127.213ZM320.638 128.213V226H322.638V128.213H320.638ZM321.638 225H301.114V227H321.638V225ZM302.114 226L302.114 15.0326H300.114L300.114 226H302.114ZM301.114 16.0326L321.638 16.0326V14.0326L301.114 14.0326V16.0326ZM320.638 15.0326V113.122H322.638V15.0326H320.638ZM321.638 114.122H338.841V112.122H321.638V114.122ZM339.841 113.122V15.0326H337.841V113.122H339.841ZM338.841 16.0326L359.062 16.0326V14.0326L338.841 14.0326V16.0326ZM417.173 32.236V33.236H418.173V32.236H417.173ZM417.173 15.0326H418.173V14.0326H417.173V15.0326ZM369.789 15.0326V14.0326L368.789 14.0326V15.0326L369.789 15.0326ZM369.789 226H368.789V227H369.789V226ZM418.682 226V227H419.682V226H418.682ZM418.682 208.797H419.682V207.797H418.682V208.797ZM390.312 208.797H389.312V209.797H390.312V208.797ZM390.312 128.213V127.213H389.312V128.213H390.312ZM411.137 128.213V129.213H412.137V128.213H411.137ZM411.137 112.82H412.137V111.82H411.137V112.82ZM390.312 112.82H389.312V113.82H390.312V112.82ZM390.312 32.236V31.236H389.312V32.236H390.312ZM388.199 3.26194L387.37 3.82108L387.667 4.26194H388.199V3.26194ZM370.694 -22.694V-23.694H368.813L369.865 -22.1349L370.694 -22.694ZM388.803 -22.694L389.709 -23.1157L389.44 -23.694H388.803V-22.694ZM400.875 3.26194V4.26194H402.443L401.782 2.84021L400.875 3.26194ZM418.173 32.236V15.0326H416.173V32.236H418.173ZM417.173 14.0326L369.789 14.0326V16.0326L417.173 16.0326V14.0326ZM368.789 15.0326L368.789 226H370.789L370.789 15.0326L368.789 15.0326ZM369.789 227L418.682 227V225L369.789 225V227ZM419.682 226V208.797H417.682V226H419.682ZM418.682 207.797H390.312V209.797H418.682V207.797ZM391.312 208.797V128.213H389.312V208.797H391.312ZM390.312 129.213H411.137V127.213H390.312V129.213ZM412.137 128.213L412.137 112.82H410.137L410.137 128.213H412.137ZM411.137 111.82H390.312V113.82H411.137V111.82ZM391.312 112.82V32.236H389.312V112.82H391.312ZM390.312 33.236L417.173 33.236V31.236L390.312 31.236V33.236ZM389.028 2.70279L371.523 -23.2531L369.865 -22.1349L387.37 3.82108L389.028 2.70279ZM370.694 -21.694L388.803 -21.694V-23.694L370.694 -23.694V-21.694ZM387.896 -22.2723L399.969 3.68367L401.782 2.84021L389.709 -23.1157L387.896 -22.2723ZM400.875 2.26194L388.199 2.26194V4.26194L400.875 4.26194V2.26194ZM483.105 114.631L483.937 115.186L483.945 115.173L483.953 115.161L483.105 114.631ZM475.56 120.667L475.244 119.719L472.078 120.774L475.302 121.633L475.56 120.667ZM483.105 126.703L482.257 127.233L482.265 127.246L482.273 127.258L483.105 126.703ZM487.331 216.946L486.342 217.098L486.343 217.104L487.331 216.946ZM489.443 226V227H491.209L490.301 225.486L489.443 226ZM468.92 226L468.056 226.504L468.346 227H468.92V226ZM466.204 213.927L465.206 213.999L465.206 213.999L466.204 213.927ZM447.491 128.213V127.213H446.491V128.213H447.491ZM447.491 226V227H448.491V226H447.491ZM426.968 226H425.968V227H426.968V226ZM426.968 15.0326V14.0326H425.968V15.0326H426.968ZM477.974 22.578L477.281 23.2988L477.295 23.3124L477.31 23.3254L477.974 22.578ZM463.186 35.8577L464.018 35.303L464.018 35.303L463.186 35.8577ZM447.491 32.236V31.236H446.491V32.236H447.491ZM447.491 113.122H446.491V114.122H447.491V113.122ZM485.123 100.144C485.123 106.511 484.123 111.116 482.257 114.101L483.953 115.161C486.112 111.707 487.123 106.654 487.123 100.144H485.123ZM482.273 114.076C480.366 116.937 478.022 118.793 475.244 119.719L475.876 121.616C479.134 120.53 481.82 118.362 483.937 115.186L482.273 114.076ZM475.302 121.633C478.025 122.36 480.349 124.18 482.257 127.233L483.953 126.173C481.837 122.788 479.131 120.585 475.818 119.701L475.302 121.633ZM482.273 127.258C484.12 130.028 485.123 134.514 485.123 140.889H487.123C487.123 134.386 486.115 129.415 483.937 126.149L482.273 127.258ZM485.123 140.889V190.084H487.123V140.889H485.123ZM485.123 190.084C485.123 202.761 485.525 211.783 486.342 217.098L488.319 216.794C487.527 211.645 487.123 202.76 487.123 190.084H485.123ZM486.343 217.104C486.747 219.629 487.129 221.667 487.489 223.209C487.838 224.706 488.193 225.859 488.586 226.514L490.301 225.486C490.09 225.135 489.791 224.276 489.436 222.755C489.092 221.278 488.719 219.292 488.318 216.788L486.343 217.104ZM489.443 225H468.92V227H489.443V225ZM469.784 225.496C468.497 223.291 467.602 219.462 467.201 213.856L465.206 213.999C465.611 219.66 466.526 223.88 468.056 226.504L469.784 225.496ZM467.201 213.856C466.801 208.258 466.6 200.338 466.6 190.084H464.6C464.6 200.354 464.801 208.329 465.206 213.999L467.201 213.856ZM466.6 190.084V142.7H464.6V190.084H466.6ZM466.6 142.7C466.6 137.82 465.995 134.011 464.684 131.387C464.021 130.061 463.161 129.007 462.08 128.286C460.993 127.561 459.739 127.213 458.357 127.213V129.213C459.389 129.213 460.247 129.468 460.971 129.95C461.701 130.437 462.35 131.193 462.895 132.282C463.997 134.487 464.6 137.922 464.6 142.7H466.6ZM458.357 127.213H447.491V129.213H458.357V127.213ZM446.491 128.213V226H448.491V128.213H446.491ZM447.491 225H426.968V227H447.491V225ZM427.968 226L427.968 15.0326L425.968 15.0326L425.968 226H427.968ZM426.968 16.0326L459.262 16.0326V14.0326L426.968 14.0326V16.0326ZM459.262 16.0326C466.246 16.0326 472.236 18.4473 477.281 23.2988L478.667 21.8571C473.25 16.6482 466.764 14.0326 459.262 14.0326V16.0326ZM477.31 23.3254C482.465 27.9075 485.123 34.8371 485.123 44.3085H487.123C487.123 34.4638 484.349 26.9064 478.639 21.8306L477.31 23.3254ZM485.123 44.3085V100.144H487.123V44.3085H485.123ZM458.357 114.122C459.734 114.122 460.986 113.782 462.072 113.073C463.153 112.367 464.015 111.333 464.68 110.03C465.995 107.455 466.6 103.718 466.6 98.9367H464.6C464.6 103.612 463.998 106.968 462.899 109.121C462.356 110.183 461.708 110.922 460.979 111.398C460.255 111.871 459.393 112.122 458.357 112.122V114.122ZM466.6 98.9367V47.3267H464.6V98.9367H466.6ZM466.6 47.3267C466.6 42.0354 465.794 37.9677 464.018 35.303L462.353 36.4124C463.796 38.5769 464.6 42.1551 464.6 47.3267H466.6ZM464.018 35.303C462.265 32.6748 459.969 31.236 457.149 31.236V33.236C459.159 33.236 460.886 34.2117 462.353 36.4124L464.018 35.303ZM457.149 31.236L447.491 31.236V33.236H457.149V31.236ZM446.491 32.236V113.122H448.491V32.236H446.491ZM447.491 114.122H458.357V112.122H447.491V114.122ZM518.818 32.236V31.236H517.818V32.236H518.818ZM518.818 112.82H517.818V113.82H518.818V112.82ZM539.643 112.82H540.643V111.82H539.643V112.82ZM539.643 128.213V129.213H540.643V128.213H539.643ZM518.818 128.213V127.213H517.818V128.213H518.818ZM518.818 208.797H517.818V209.797H518.818V208.797ZM547.189 208.797H548.189V207.797H547.189V208.797ZM547.189 226V227H548.189V226H547.189ZM498.295 226H497.295V227H498.295V226ZM498.295 15.0326V14.0326H497.295V15.0326H498.295ZM545.68 15.0326H546.68V14.0326H545.68V15.0326ZM545.68 32.236V33.236H546.68V32.236H545.68ZM517.818 32.236V112.82H519.818V32.236H517.818ZM518.818 113.82L539.643 113.82V111.82L518.818 111.82V113.82ZM538.643 112.82V128.213H540.643V112.82H538.643ZM539.643 127.213L518.818 127.213V129.213H539.643V127.213ZM517.818 128.213V208.797H519.818V128.213H517.818ZM518.818 209.797H547.189V207.797H518.818V209.797ZM546.189 208.797V226H548.189V208.797H546.189ZM547.189 225L498.295 225V227L547.189 227V225ZM499.295 226V15.0326H497.295V226H499.295ZM498.295 16.0326L545.68 16.0326V14.0326L498.295 14.0326V16.0326ZM544.68 15.0326V32.236H546.68V15.0326H544.68ZM545.68 31.236L518.818 31.236V33.236H545.68V31.236ZM589.959 226H588.959V227H589.959V226ZM589.959 15.0326V14.0326H588.959V15.0326H589.959ZM631.609 16.5417L631.311 17.4962L631.319 17.4987L631.327 17.5011L631.609 16.5417ZM640.362 21.6725L639.654 22.3796L639.684 22.409L639.716 22.4359L640.362 21.6725ZM646.7 30.4251L645.786 30.8313L645.786 30.8313L646.7 30.4251ZM640.362 219.662L641.037 220.399L641.04 220.397L640.362 219.662ZM631.609 224.491L631.327 223.532L631.319 223.534L631.311 223.536L631.609 224.491ZM610.482 32.236V31.236H609.482V32.236H610.482ZM610.482 208.797H609.482V209.797H610.482V208.797ZM626.176 205.779L626.957 206.403L626.972 206.385L626.985 206.367L626.176 205.779ZM626.176 35.5559L625.368 36.1441L625.381 36.1627L625.396 36.1806L626.176 35.5559ZM590.959 226V15.0326H588.959V226H590.959ZM589.959 16.0326L621.951 16.0326V14.0326L589.959 14.0326V16.0326ZM621.951 16.0326C625.064 16.0326 628.183 16.5189 631.311 17.4962L631.907 15.5872C628.596 14.5525 625.276 14.0326 621.951 14.0326V16.0326ZM631.327 17.5011C634.594 18.4621 637.364 20.0888 639.654 22.3796L641.069 20.9654C638.531 18.4273 635.465 16.6334 631.891 15.5824L631.327 17.5011ZM639.716 22.4359C642.2 24.5377 644.228 27.3257 645.786 30.8313L647.613 30.019C645.952 26.281 643.755 23.234 641.008 20.9091L639.716 22.4359ZM645.786 30.8313C647.324 34.2912 648.114 38.5708 648.114 43.7049H650.114C650.114 38.3762 649.295 33.8025 647.613 30.019L645.786 30.8313ZM648.114 43.7049V197.328H650.114V43.7049H648.114ZM648.114 197.328C648.114 202.462 647.324 206.741 645.786 210.201L647.613 211.014C649.295 207.23 650.114 202.656 650.114 197.328H648.114ZM645.786 210.201C644.225 213.713 642.188 216.615 639.683 218.927L641.04 220.397C643.766 217.88 645.955 214.746 647.613 211.014L645.786 210.201ZM639.686 218.925C637.394 221.026 634.614 222.565 631.327 223.532L631.891 225.45C635.445 224.405 638.501 222.724 641.037 220.399L639.686 218.925ZM631.311 223.536C628.183 224.514 625.064 225 621.951 225V227C625.276 227 628.596 226.48 631.907 225.445L631.311 223.536ZM621.951 225L589.959 225V227L621.951 227V225ZM609.482 32.236V208.797H611.482V32.236H609.482ZM610.482 209.797L620.442 209.797V207.797L610.482 207.797V209.797ZM620.442 209.797C623.011 209.797 625.193 208.609 626.957 206.403L625.396 205.154C623.941 206.972 622.3 207.797 620.442 207.797V209.797ZM626.985 206.367C628.793 203.881 629.591 199.779 629.591 194.31H627.591C627.591 199.705 626.78 203.249 625.368 205.19L626.985 206.367ZM629.591 194.31V46.723H627.591V194.31H629.591ZM629.591 46.723C629.591 41.2698 628.799 37.2333 626.957 34.9312L625.396 36.1806C626.773 37.9028 627.591 41.3109 627.591 46.723H629.591ZM626.985 34.9678C625.237 32.5642 623.051 31.236 620.442 31.236V33.236C622.259 33.236 623.896 34.1211 625.368 36.1441L626.985 34.9678ZM620.442 31.236L610.482 31.236V33.236H620.442V31.236ZM680.041 32.236V31.236H679.041V32.236H680.041ZM680.041 112.82H679.041V113.82H680.041V112.82ZM700.866 112.82H701.866V111.82H700.866V112.82ZM700.866 128.213V129.213H701.866V128.213H700.866ZM680.041 128.213V127.213H679.041V128.213H680.041ZM680.041 208.797H679.041V209.797H680.041V208.797ZM708.411 208.797H709.411V207.797H708.411V208.797ZM708.411 226V227H709.411V226H708.411ZM659.517 226H658.517V227H659.517V226ZM659.517 15.0326V14.0326L658.517 14.0326V15.0326L659.517 15.0326ZM706.902 15.0326H707.902V14.0326H706.902V15.0326ZM706.902 32.236V33.236H707.902V32.236H706.902ZM679.041 32.236V112.82H681.041V32.236H679.041ZM680.041 113.82H700.866V111.82H680.041V113.82ZM699.866 112.82V128.213H701.866V112.82H699.866ZM700.866 127.213H680.041V129.213H700.866V127.213ZM679.041 128.213V208.797H681.041V128.213H679.041ZM680.041 209.797H708.411V207.797H680.041V209.797ZM707.411 208.797V226H709.411V208.797H707.411ZM708.411 225H659.517V227H708.411V225ZM660.517 226V15.0326L658.517 15.0326V226H660.517ZM659.517 16.0326L706.902 16.0326V14.0326L659.517 14.0326V16.0326ZM705.902 15.0326V32.236H707.902V15.0326H705.902ZM706.902 31.236L680.041 31.236V33.236L706.902 33.236V31.236ZM767.781 226L768.132 225.064L768.106 225.054L768.079 225.046L767.781 226ZM759.028 220.869L758.321 221.576L758.335 221.59L758.35 221.604L759.028 220.869ZM752.992 211.815L752.07 212.203L752.074 212.212L752.078 212.221L752.992 211.815ZM752.992 29.5197L753.906 29.9258L753.91 29.9168L753.914 29.9077L752.992 29.5197ZM759.028 20.1635L758.35 19.4287L758.335 19.4422L758.321 19.4564L759.028 20.1635ZM767.781 15.0326L768.079 15.9871L768.106 15.9788L768.132 15.969L767.781 15.0326ZM792.228 15.0326L791.877 15.969L791.911 15.9817L791.946 15.992L792.228 15.0326ZM800.98 20.1635L800.273 20.8706L800.287 20.8847L800.302 20.8983L800.98 20.1635ZM807.318 29.5197L806.397 29.9077L806.401 29.9168L806.405 29.9258L807.318 29.5197ZM809.733 100.144V101.144H810.733V100.144H809.733ZM789.21 100.144H788.21V101.144H789.21V100.144ZM786.795 34.0469L785.963 34.6016L785.974 34.6185L785.986 34.635L786.795 34.0469ZM773.515 33.7451L774.324 34.3332L774.324 34.3332L773.515 33.7451ZM773.515 207.288L772.683 207.842L772.695 207.859L772.707 207.876L773.515 207.288ZM786.795 207.288L787.604 207.876L787.616 207.859L787.627 207.842L786.795 207.288ZM789.21 140.587V139.587H788.21V140.587H789.21ZM809.733 140.587H810.733V139.587H809.733V140.587ZM807.318 211.815L808.232 212.221L808.236 212.212L808.24 212.203L807.318 211.815ZM800.98 220.869L800.302 220.134L800.287 220.148L800.273 220.162L800.98 220.869ZM792.228 226L791.946 225.041L791.911 225.051L791.877 225.064L792.228 226ZM777.741 226.811C774.441 226.811 771.24 226.229 768.132 225.064L767.43 226.936C770.761 228.185 774.2 228.811 777.741 228.811V226.811ZM768.079 225.046C765.009 224.086 762.22 222.454 759.707 220.134L758.35 221.604C761.068 224.113 764.114 225.902 767.483 226.954L768.079 225.046ZM759.735 220.162C757.421 217.847 755.474 214.936 753.906 211.409L752.078 212.221C753.73 215.937 755.807 219.062 758.321 221.576L759.735 220.162ZM753.914 211.427C752.367 207.754 751.578 203.365 751.578 198.233H749.578C749.578 203.564 750.397 208.229 752.07 212.203L753.914 211.427ZM751.578 198.233V42.7994L749.578 42.7994V198.233H751.578ZM751.578 42.7994C751.578 37.6653 752.368 33.3858 753.906 29.9258L752.078 29.1135C750.397 32.8971 749.578 37.4707 749.578 42.7994L751.578 42.7994ZM753.914 29.9077C755.484 26.1791 757.43 23.1762 759.735 20.8706L758.321 19.4564C755.798 21.9797 753.72 25.2144 752.07 29.1316L753.914 29.9077ZM759.707 20.8983C762.22 18.5785 765.009 16.9466 768.079 15.9871L767.483 14.0782C764.114 15.1308 761.068 16.9194 758.35 19.4287L759.707 20.8983ZM768.132 15.969C771.24 14.8036 774.441 14.2218 777.741 14.2218V12.2218C774.2 12.2218 770.761 12.8472 767.43 14.0963L768.132 15.969ZM777.741 14.2218L782.57 14.2218V12.2218L777.741 12.2218V14.2218ZM782.57 14.2218C785.661 14.2218 788.762 14.8009 791.877 15.969L792.579 14.0963C789.255 12.8498 785.917 12.2218 782.57 12.2218V14.2218ZM791.946 15.992C795.213 16.953 797.982 18.5797 800.273 20.8706L801.687 19.4564C799.149 16.9182 796.084 15.1244 792.51 14.0733L791.946 15.992ZM800.302 20.8983C802.797 23.2012 804.833 26.1948 806.397 29.9077L808.24 29.1316C806.584 25.1986 804.395 21.9548 801.659 19.4287L800.302 20.8983ZM806.405 29.9258C807.942 33.3858 808.733 37.6653 808.733 42.7994H810.733C810.733 37.4707 809.914 32.8971 808.232 29.1135L806.405 29.9258ZM808.733 42.7994V100.144H810.733V42.7994H808.733ZM809.733 99.1439H789.21V101.144H809.733V99.1439ZM790.21 100.144V45.5158H788.21V100.144H790.21ZM790.21 45.5158C790.21 40.046 789.411 35.944 787.604 33.4587L785.986 34.635C787.398 36.5763 788.21 40.1203 788.21 45.5158H790.21ZM787.627 33.4922C785.896 30.896 783.71 29.4251 781.061 29.4251V31.4251C782.838 31.4251 784.475 32.3688 785.963 34.6016L787.627 33.4922ZM781.061 29.4251H779.25V31.4251H781.061V29.4251ZM779.25 29.4251C776.64 29.4251 774.455 30.7534 772.707 33.1569L774.324 34.3332C775.795 32.3102 777.433 31.4251 779.25 31.4251V29.4251ZM772.707 33.1569C770.894 35.6496 770.101 39.9643 770.101 45.8176H772.101C772.101 40.0007 772.918 36.2671 774.324 34.3332L772.707 33.1569ZM770.101 45.8176V195.215H772.101V45.8176H770.101ZM770.101 195.215C770.101 200.891 770.902 205.17 772.683 207.842L774.347 206.733C772.91 204.577 772.101 200.807 772.101 195.215H770.101ZM772.707 207.876C774.455 210.279 776.64 211.608 779.25 211.608V209.608C777.433 209.608 775.795 208.722 774.324 206.699L772.707 207.876ZM779.25 211.608H781.061V209.608H779.25V211.608ZM781.061 211.608C783.67 211.608 785.856 210.279 787.604 207.876L785.986 206.699C784.515 208.722 782.878 209.608 781.061 209.608V211.608ZM787.627 207.842C789.409 205.17 790.21 200.891 790.21 195.215H788.21C788.21 200.807 787.401 204.577 785.963 206.733L787.627 207.842ZM790.21 195.215V140.587H788.21V195.215H790.21ZM789.21 141.587H809.733V139.587H789.21V141.587ZM808.733 140.587V198.233H810.733V140.587H808.733ZM808.733 198.233C808.733 203.365 807.943 207.754 806.397 211.427L808.24 212.203C809.913 208.229 810.733 203.564 810.733 198.233H808.733ZM806.405 211.409C804.844 214.92 802.807 217.822 800.302 220.134L801.659 221.604C804.385 219.087 806.574 215.953 808.232 212.221L806.405 211.409ZM800.273 220.162C797.982 222.453 795.213 224.08 791.946 225.041L792.51 226.959C796.084 225.908 799.149 224.114 801.688 221.576L800.273 220.162ZM791.877 225.064C788.762 226.232 785.661 226.811 782.57 226.811V228.811C785.917 228.811 789.255 228.183 792.579 226.936L791.877 225.064ZM782.57 226.811H777.741V228.811H782.57V226.811ZM856.375 168.957L857.371 168.868L857.289 167.957H856.375V168.957ZM837.964 168.957V167.957H837.05L836.968 168.868L837.964 168.957ZM832.833 226V227H833.748L833.829 226.09L832.833 226ZM815.328 226L814.332 225.909L814.233 227H815.328V226ZM834.644 15.0326V14.0326H833.732L833.648 14.9415L834.644 15.0326ZM860.6 15.0326L861.596 14.9358L861.508 14.0326H860.6V15.0326ZM881.124 226V227H882.226L882.119 225.903L881.124 226ZM861.506 226L860.51 226.09L860.592 227H861.506V226ZM839.172 153.565L838.176 153.473L838.075 154.565H839.172V153.565ZM854.866 153.565V154.565H855.958L855.862 153.477L854.866 153.565ZM847.622 71.7735L848.618 71.6853L848.538 70.7735H847.622V71.7735ZM846.717 71.7735V70.7735H845.805L845.721 71.6816L846.717 71.7735ZM856.375 167.957L837.964 167.957V169.957L856.375 169.957V167.957ZM836.968 168.868L831.837 225.91L833.829 226.09L838.96 169.047L836.968 168.868ZM832.833 225H815.328V227H832.833V225ZM816.324 226.091L835.64 15.1238L833.648 14.9415L814.332 225.909L816.324 226.091ZM834.644 16.0326L860.6 16.0326V14.0326L834.644 14.0326V16.0326ZM859.605 15.1295L880.128 226.097L882.119 225.903L861.596 14.9358L859.605 15.1295ZM881.124 225H861.506V227H881.124V225ZM862.502 225.91L857.371 168.868L855.379 169.047L860.51 226.09L862.502 225.91ZM839.172 154.565L854.866 154.565V152.565L839.172 152.565V154.565ZM855.862 153.477L848.618 71.6853L846.626 71.8617L853.87 153.653L855.862 153.477ZM847.622 70.7735H846.717V72.7735H847.622V70.7735ZM845.721 71.6816L838.176 153.473L840.167 153.657L847.713 71.8654L845.721 71.6816ZM943.193 114.631L944.025 115.186L944.033 115.173L944.041 115.161L943.193 114.631ZM935.648 120.667L935.332 119.719L932.166 120.774L935.39 121.633L935.648 120.667ZM943.193 126.703L942.345 127.233L942.353 127.246L942.361 127.258L943.193 126.703ZM947.419 216.946L946.43 217.098L946.431 217.104L947.419 216.946ZM949.531 226V227H951.298L950.389 225.486L949.531 226ZM929.008 226L928.144 226.504L928.434 227H929.008V226ZM926.292 213.927L925.294 213.999L925.294 213.999L926.292 213.927ZM907.579 128.213V127.213H906.579V128.213H907.579ZM907.579 226V227H908.579V226H907.579ZM887.056 226H886.056V227H887.056V226ZM887.056 15.0326V14.0326H886.056V15.0326H887.056ZM938.062 22.578L937.369 23.2988L937.383 23.3124L937.398 23.3254L938.062 22.578ZM923.274 35.8577L924.106 35.303L924.106 35.303L923.274 35.8577ZM907.579 32.236V31.236H906.579V32.236H907.579ZM907.579 113.122H906.579V114.122H907.579V113.122ZM945.211 100.144C945.211 106.511 944.211 111.116 942.345 114.101L944.041 115.161C946.2 111.707 947.211 106.654 947.211 100.144H945.211ZM942.361 114.076C940.454 116.937 938.11 118.793 935.332 119.719L935.964 121.616C939.222 120.53 941.908 118.362 944.025 115.186L942.361 114.076ZM935.39 121.633C938.113 122.36 940.437 124.18 942.345 127.233L944.041 126.173C941.925 122.788 939.219 120.585 935.906 119.701L935.39 121.633ZM942.361 127.258C944.208 130.028 945.211 134.514 945.211 140.889H947.211C947.211 134.386 946.203 129.415 944.025 126.149L942.361 127.258ZM945.211 140.889V190.084H947.211V140.889H945.211ZM945.211 190.084C945.211 202.761 945.613 211.783 946.43 217.098L948.407 216.794C947.615 211.645 947.211 202.76 947.211 190.084H945.211ZM946.431 217.104C946.835 219.629 947.217 221.667 947.577 223.209C947.926 224.706 948.281 225.859 948.674 226.514L950.389 225.486C950.178 225.135 949.879 224.276 949.524 222.755C949.18 221.278 948.807 219.292 948.406 216.788L946.431 217.104ZM949.531 225H929.008V227H949.531V225ZM929.872 225.496C928.585 223.291 927.69 219.462 927.289 213.856L925.294 213.999C925.699 219.66 926.614 223.88 928.144 226.504L929.872 225.496ZM927.289 213.856C926.889 208.258 926.688 200.338 926.688 190.084H924.688C924.688 200.354 924.889 208.329 925.294 213.999L927.289 213.856ZM926.688 190.084V142.7H924.688V190.084H926.688ZM926.688 142.7C926.688 137.82 926.083 134.011 924.772 131.387C924.109 130.061 923.25 129.007 922.168 128.286C921.081 127.561 919.827 127.213 918.445 127.213V129.213C919.477 129.213 920.336 129.468 921.059 129.95C921.789 130.437 922.439 131.193 922.983 132.282C924.086 134.487 924.688 137.922 924.688 142.7H926.688ZM918.445 127.213H907.579V129.213H918.445V127.213ZM906.579 128.213V226H908.579V128.213H906.579ZM907.579 225H887.056V227H907.579V225ZM888.056 226V15.0326H886.056V226H888.056ZM887.056 16.0326L919.35 16.0326V14.0326L887.056 14.0326V16.0326ZM919.35 16.0326C926.335 16.0326 932.324 18.4473 937.369 23.2988L938.756 21.8571C933.338 16.6482 926.853 14.0326 919.35 14.0326V16.0326ZM937.398 23.3254C942.553 27.9075 945.211 34.8371 945.211 44.3085H947.211C947.211 34.4638 944.437 26.9064 938.727 21.8306L937.398 23.3254ZM945.211 44.3085V100.144H947.211V44.3085H945.211ZM918.445 114.122C919.823 114.122 921.074 113.782 922.16 113.073C923.242 112.367 924.103 111.333 924.768 110.03C926.083 107.455 926.688 103.718 926.688 98.9367H924.688C924.688 103.612 924.086 106.968 922.987 109.121C922.444 110.183 921.797 110.922 921.067 111.398C920.343 111.871 919.481 112.122 918.445 112.122V114.122ZM926.688 98.9367V47.3267H924.688V98.9367H926.688ZM926.688 47.3267C926.688 42.0354 925.882 37.9677 924.106 35.303L922.442 36.4124C923.885 38.5769 924.688 42.1551 924.688 47.3267H926.688ZM924.106 35.303C922.354 32.6748 920.057 31.236 917.237 31.236V33.236C919.247 33.236 920.974 34.2117 922.442 36.4124L924.106 35.303ZM917.237 31.236L907.579 31.236V33.236H917.237V31.236ZM906.579 32.236V113.122H908.579V32.236H906.579ZM907.579 114.122H918.445V112.122H907.579V114.122ZM1014.52 32.236V33.236H1015.52V32.236H1014.52ZM994.299 32.236V31.236H993.299V32.236H994.299ZM994.299 226V227H995.299V226H994.299ZM974.077 226H973.077V227H974.077V226ZM974.077 32.236H975.077V31.236L974.077 31.236V32.236ZM953.856 32.236H952.856V33.236H953.856V32.236ZM953.856 15.0326V14.0326H952.856V15.0326H953.856ZM1014.52 15.0326H1015.52V14.0326H1014.52V15.0326ZM1014.52 31.236L994.299 31.236V33.236L1014.52 33.236V31.236ZM993.299 32.236V226H995.299V32.236H993.299ZM994.299 225H974.077V227H994.299V225ZM975.077 226V32.236H973.077V226H975.077ZM974.077 31.236L953.856 31.236V33.236H974.077V31.236ZM954.856 32.236V15.0326H952.856V32.236H954.856ZM953.856 16.0326L1014.52 16.0326V14.0326L953.856 14.0326V16.0326ZM1013.52 15.0326V32.236H1015.52V15.0326L1013.52 15.0326ZM1041.39 15.0326H1042.39V14.0326H1041.39V15.0326ZM1041.39 226V227H1042.39V226H1041.39ZM1020.87 226H1019.87V227H1020.87V226ZM1020.87 15.0326V14.0326H1019.87V15.0326H1020.87ZM1040.39 15.0326V226H1042.39V15.0326H1040.39ZM1041.39 225H1020.87V227H1041.39V225ZM1021.87 226V15.0326L1019.87 15.0326V226H1021.87ZM1020.87 16.0326L1041.39 16.0326V14.0326L1020.87 14.0326V16.0326ZM1072.63 32.236V31.236H1071.63V32.236H1072.63ZM1072.63 112.82H1071.63V113.82H1072.63V112.82ZM1093.46 112.82H1094.46V111.82H1093.46V112.82ZM1093.46 128.213V129.213H1094.46V128.213H1093.46ZM1072.63 128.213V127.213H1071.63V128.213H1072.63ZM1072.63 208.797H1071.63V209.797H1072.63V208.797ZM1101 208.797H1102V207.797H1101V208.797ZM1101 226V227H1102V226H1101ZM1052.11 226H1051.11V227H1052.11V226ZM1052.11 15.0326V14.0326H1051.11V15.0326H1052.11ZM1099.49 15.0326H1100.49V14.0326H1099.49V15.0326ZM1099.49 32.236V33.236H1100.49V32.236H1099.49ZM1071.63 32.236V112.82H1073.63V32.236H1071.63ZM1072.63 113.82H1093.46V111.82H1072.63V113.82ZM1092.46 112.82V128.213H1094.46V112.82H1092.46ZM1093.46 127.213H1072.63V129.213L1093.46 129.213V127.213ZM1071.63 128.213V208.797H1073.63V128.213H1071.63ZM1072.63 209.797L1101 209.797V207.797L1072.63 207.797V209.797ZM1100 208.797V226H1102V208.797H1100ZM1101 225L1052.11 225V227L1101 227V225ZM1053.11 226V15.0326H1051.11V226H1053.11ZM1052.11 16.0326L1099.49 16.0326V14.0326L1052.11 14.0326V16.0326ZM1098.49 15.0326V32.236H1100.49V15.0326H1098.49ZM1099.49 31.236L1072.63 31.236V33.236L1099.49 33.236V31.236ZM1165.43 114.631L1166.26 115.186L1166.27 115.173L1166.27 115.161L1165.43 114.631ZM1157.88 120.667L1157.57 119.719L1154.4 120.774L1157.62 121.633L1157.88 120.667ZM1165.43 126.703L1164.58 127.233L1164.59 127.246L1164.59 127.258L1165.43 126.703ZM1169.65 216.946L1168.66 217.098L1168.66 217.104L1169.65 216.946ZM1171.76 226V227H1173.53L1172.62 225.486L1171.76 226ZM1151.24 226L1150.38 226.504L1150.67 227H1151.24V226ZM1148.53 213.927L1147.53 213.999L1147.53 213.999L1148.53 213.927ZM1129.81 128.213V127.213H1128.81V128.213H1129.81ZM1129.81 226V227H1130.81V226H1129.81ZM1109.29 226H1108.29V227H1109.29V226ZM1109.29 15.0326V14.0326L1108.29 14.0326V15.0326L1109.29 15.0326ZM1160.3 22.578L1159.6 23.2988L1159.62 23.3124L1159.63 23.3254L1160.3 22.578ZM1145.51 35.8577L1146.34 35.303L1146.34 35.303L1145.51 35.8577ZM1129.81 32.236V31.236H1128.81V32.236H1129.81ZM1129.81 113.122H1128.81V114.122H1129.81V113.122ZM1167.44 100.144C1167.44 106.511 1166.44 111.116 1164.58 114.101L1166.27 115.161C1168.43 111.707 1169.44 106.654 1169.44 100.144H1167.44ZM1164.59 114.076C1162.69 116.937 1160.34 118.793 1157.57 119.719L1158.2 121.616C1161.46 120.53 1164.14 118.362 1166.26 115.186L1164.59 114.076ZM1157.62 121.633C1160.35 122.36 1162.67 124.18 1164.58 127.233L1166.27 126.173C1164.16 122.788 1161.45 120.585 1158.14 119.701L1157.62 121.633ZM1164.59 127.258C1166.44 130.028 1167.44 134.514 1167.44 140.889H1169.44C1169.44 134.386 1168.44 129.415 1166.26 126.149L1164.59 127.258ZM1167.44 140.889V190.084H1169.44V140.889H1167.44ZM1167.44 190.084C1167.44 202.761 1167.85 211.783 1168.66 217.098L1170.64 216.794C1169.85 211.645 1169.44 202.76 1169.44 190.084H1167.44ZM1168.66 217.104C1169.07 219.629 1169.45 221.667 1169.81 223.209C1170.16 224.706 1170.51 225.859 1170.91 226.514L1172.62 225.486C1172.41 225.135 1172.11 224.276 1171.76 222.755C1171.41 221.278 1171.04 219.292 1170.64 216.788L1168.66 217.104ZM1171.76 225H1151.24V227H1171.76V225ZM1152.11 225.496C1150.82 223.291 1149.92 219.462 1149.52 213.856L1147.53 213.999C1147.93 219.66 1148.85 223.88 1150.38 226.504L1152.11 225.496ZM1149.52 213.856C1149.12 208.258 1148.92 200.338 1148.92 190.084H1146.92C1146.92 200.354 1147.12 208.329 1147.53 213.999L1149.52 213.856ZM1148.92 190.084V142.7H1146.92V190.084H1148.92ZM1148.92 142.7C1148.92 137.82 1148.32 134.011 1147.01 131.387C1146.34 130.061 1145.48 129.007 1144.4 128.286C1143.31 127.561 1142.06 127.213 1140.68 127.213V129.213C1141.71 129.213 1142.57 129.468 1143.29 129.95C1144.02 130.437 1144.67 131.193 1145.22 132.282C1146.32 134.487 1146.92 137.922 1146.92 142.7H1148.92ZM1140.68 127.213H1129.81V129.213H1140.68V127.213ZM1128.81 128.213V226H1130.81V128.213H1128.81ZM1129.81 225H1109.29V227H1129.81V225ZM1110.29 226V15.0326L1108.29 15.0326V226H1110.29ZM1109.29 16.0326L1141.58 16.0326V14.0326L1109.29 14.0326V16.0326ZM1141.58 16.0326C1148.57 16.0326 1154.56 18.4473 1159.6 23.2988L1160.99 21.8571C1155.57 16.6482 1149.09 14.0326 1141.58 14.0326V16.0326ZM1159.63 23.3254C1164.79 27.9075 1167.44 34.8371 1167.44 44.3085H1169.44C1169.44 34.4638 1166.67 26.9064 1160.96 21.8306L1159.63 23.3254ZM1167.44 44.3085V100.144H1169.44V44.3085H1167.44ZM1140.68 114.122C1142.06 114.122 1143.31 113.782 1144.39 113.073C1145.47 112.367 1146.34 111.333 1147 110.03C1148.32 107.455 1148.92 103.718 1148.92 98.9367H1146.92C1146.92 103.612 1146.32 106.968 1145.22 109.121C1144.68 110.183 1144.03 110.922 1143.3 111.398C1142.58 111.871 1141.71 112.122 1140.68 112.122V114.122ZM1148.92 98.9367V47.3267H1146.92V98.9367H1148.92ZM1148.92 47.3267C1148.92 42.0354 1148.12 37.9677 1146.34 35.303L1144.67 36.4124C1146.12 38.5769 1146.92 42.1551 1146.92 47.3267H1148.92ZM1146.34 35.303C1144.59 32.6748 1142.29 31.236 1139.47 31.236V33.236C1141.48 33.236 1143.21 34.2117 1144.67 36.4124L1146.34 35.303ZM1139.47 31.236L1129.81 31.236V33.236H1139.47V31.236ZM1128.81 32.236V113.122H1130.81V32.236H1128.81ZM1129.81 114.122H1140.68V112.122H1129.81V114.122Z" fill="white"/>
</svg>
