<svg width="533" height="272" viewBox="0 0 533 272" fill="none" xmlns="http://www.w3.org/2000/svg">
<mask id="path-1-inside-1" fill="white">
<path d="M34.3742 272C30.0456 272 25.8443 271.235 21.7703 269.705C17.6963 268.429 14.0043 266.262 10.6942 263.201C7.63871 260.141 5.09247 256.315 3.05548 251.724C1.01849 246.879 0 241.14 0 234.509V37.4909C0 30.8598 1.01849 25.249 3.05548 20.6582C5.09247 15.8125 7.63871 11.8594 10.6942 8.79888C14.0043 5.73841 17.6963 3.57056 21.7703 2.29535C25.8443 0.765117 30.0456 0 34.3742 0H40.4852C44.5591 0 48.6331 0.765117 52.7071 2.29535C57.0357 3.57056 60.7277 5.73841 63.7832 8.79888C67.0933 11.8594 69.7669 15.8125 71.8039 20.6582C73.8409 25.249 74.8594 30.8598 74.8594 37.4909V110.177H48.8878V40.9339C48.8878 34.0478 47.8693 29.2021 45.8323 26.3966C43.7953 23.3362 41.3764 21.8059 38.5755 21.8059H36.2839C33.483 21.8059 31.0641 23.2086 29.0271 26.0141C26.9901 28.8195 25.9716 33.9203 25.9716 41.3165V230.684C25.9716 237.825 26.9901 242.925 29.0271 245.986C31.0641 248.791 33.483 250.194 36.2839 250.194H38.5755C41.3764 250.194 43.7953 248.791 45.8323 245.986C47.8693 242.925 48.8878 237.825 48.8878 230.684V161.44H74.8594V234.509C74.8594 241.14 73.8409 246.879 71.8039 251.724C69.7669 256.315 67.0933 260.141 63.7832 263.201C60.7277 266.262 57.0357 268.429 52.7071 269.705C48.6331 271.235 44.5591 272 40.4852 272H34.3742Z"/>
<path d="M133.883 197.401H110.585L104.092 269.705H81.9401L106.384 2.29535H139.23L165.202 269.705H140.376L133.883 197.401ZM112.113 177.89H131.974L122.807 74.2166H121.661L112.113 177.89Z"/>
<path d="M247.569 110.177C247.569 118.338 246.296 124.459 243.749 128.54C241.203 132.366 238.02 134.916 234.201 136.191C238.02 137.211 241.203 139.762 243.749 143.842C246.296 147.668 247.569 153.662 247.569 161.823V224.18C247.569 240.248 248.078 251.597 249.097 258.228C250.115 264.604 251.006 268.429 251.77 269.705H225.798C224.016 266.644 222.87 261.543 222.361 254.402C221.852 247.261 221.597 237.187 221.597 224.18V164.118C221.597 151.876 218.542 145.755 212.431 145.755H198.681V269.705H172.709V2.29535H213.577C222.743 2.29535 230.636 5.48336 237.257 11.8594C244.131 17.9803 247.569 27.1617 247.569 39.4036V110.177ZM212.431 126.627C218.542 126.627 221.597 120.634 221.597 108.647V43.2293C221.597 36.5982 220.579 31.7525 218.542 28.692C216.505 25.6315 213.958 24.1013 210.903 24.1013H198.681V126.627H212.431Z"/>
<path d="M334.012 24.1013H308.422V269.705H282.832V24.1013H257.243V2.29535H334.012V24.1013Z"/>
<path d="M368.016 2.29535V269.705H342.044V2.29535H368.016Z"/>
<path d="M407.552 24.1013V126.245H433.906V145.755H407.552V247.899H443.454V269.705H381.58V2.29535H441.544V24.1013H407.552Z"/>
<path d="M528.799 110.177C528.799 118.338 527.526 124.459 524.979 128.54C522.433 132.366 519.25 134.916 515.431 136.191C519.25 137.211 522.433 139.762 524.979 143.842C527.526 147.668 528.799 153.662 528.799 161.823V224.18C528.799 240.248 529.308 251.597 530.326 258.228C531.345 264.604 532.236 268.429 533 269.705H507.028C505.246 266.644 504.1 261.543 503.591 254.402C503.082 247.261 502.827 237.187 502.827 224.18V164.118C502.827 151.876 499.772 145.755 493.661 145.755H479.911V269.705H453.939V2.29535H494.806C503.973 2.29535 511.866 5.48336 518.486 11.8594C525.361 17.9803 528.799 27.1617 528.799 39.4036V110.177ZM493.661 126.627C499.772 126.627 502.827 120.634 502.827 108.647V43.2293C502.827 36.5982 501.809 31.7525 499.772 28.692C497.735 25.6315 495.188 24.1013 492.133 24.1013H479.911V126.627H493.661Z"/>
</mask>
<path d="M34.3742 272C30.0456 272 25.8443 271.235 21.7703 269.705C17.6963 268.429 14.0043 266.262 10.6942 263.201C7.63871 260.141 5.09247 256.315 3.05548 251.724C1.01849 246.879 0 241.14 0 234.509V37.4909C0 30.8598 1.01849 25.249 3.05548 20.6582C5.09247 15.8125 7.63871 11.8594 10.6942 8.79888C14.0043 5.73841 17.6963 3.57056 21.7703 2.29535C25.8443 0.765117 30.0456 0 34.3742 0H40.4852C44.5591 0 48.6331 0.765117 52.7071 2.29535C57.0357 3.57056 60.7277 5.73841 63.7832 8.79888C67.0933 11.8594 69.7669 15.8125 71.8039 20.6582C73.8409 25.249 74.8594 30.8598 74.8594 37.4909V110.177H48.8878V40.9339C48.8878 34.0478 47.8693 29.2021 45.8323 26.3966C43.7953 23.3362 41.3764 21.8059 38.5755 21.8059H36.2839C33.483 21.8059 31.0641 23.2086 29.0271 26.0141C26.9901 28.8195 25.9716 33.9203 25.9716 41.3165V230.684C25.9716 237.825 26.9901 242.925 29.0271 245.986C31.0641 248.791 33.483 250.194 36.2839 250.194H38.5755C41.3764 250.194 43.7953 248.791 45.8323 245.986C47.8693 242.925 48.8878 237.825 48.8878 230.684V161.44H74.8594V234.509C74.8594 241.14 73.8409 246.879 71.8039 251.724C69.7669 256.315 67.0933 260.141 63.7832 263.201C60.7277 266.262 57.0357 268.429 52.7071 269.705C48.6331 271.235 44.5591 272 40.4852 272H34.3742Z" stroke="white" stroke-width="2" mask="url(#path-1-inside-1)"/>
<path d="M133.883 197.401H110.585L104.092 269.705H81.9401L106.384 2.29535H139.23L165.202 269.705H140.376L133.883 197.401ZM112.113 177.89H131.974L122.807 74.2166H121.661L112.113 177.89Z" stroke="white" stroke-width="2" mask="url(#path-1-inside-1)"/>
<path d="M247.569 110.177C247.569 118.338 246.296 124.459 243.749 128.54C241.203 132.366 238.02 134.916 234.201 136.191C238.02 137.211 241.203 139.762 243.749 143.842C246.296 147.668 247.569 153.662 247.569 161.823V224.18C247.569 240.248 248.078 251.597 249.097 258.228C250.115 264.604 251.006 268.429 251.77 269.705H225.798C224.016 266.644 222.87 261.543 222.361 254.402C221.852 247.261 221.597 237.187 221.597 224.18V164.118C221.597 151.876 218.542 145.755 212.431 145.755H198.681V269.705H172.709V2.29535H213.577C222.743 2.29535 230.636 5.48336 237.257 11.8594C244.131 17.9803 247.569 27.1617 247.569 39.4036V110.177ZM212.431 126.627C218.542 126.627 221.597 120.634 221.597 108.647V43.2293C221.597 36.5982 220.579 31.7525 218.542 28.692C216.505 25.6315 213.958 24.1013 210.903 24.1013H198.681V126.627H212.431Z" stroke="white" stroke-width="2" mask="url(#path-1-inside-1)"/>
<path d="M334.012 24.1013H308.422V269.705H282.832V24.1013H257.243V2.29535H334.012V24.1013Z" stroke="white" stroke-width="2" mask="url(#path-1-inside-1)"/>
<path d="M368.016 2.29535V269.705H342.044V2.29535H368.016Z" stroke="white" stroke-width="2" mask="url(#path-1-inside-1)"/>
<path d="M407.552 24.1013V126.245H433.906V145.755H407.552V247.899H443.454V269.705H381.58V2.29535H441.544V24.1013H407.552Z" stroke="white" stroke-width="2" mask="url(#path-1-inside-1)"/>
<path d="M528.799 110.177C528.799 118.338 527.526 124.459 524.979 128.54C522.433 132.366 519.25 134.916 515.431 136.191C519.25 137.211 522.433 139.762 524.979 143.842C527.526 147.668 528.799 153.662 528.799 161.823V224.18C528.799 240.248 529.308 251.597 530.326 258.228C531.345 264.604 532.236 268.429 533 269.705H507.028C505.246 266.644 504.1 261.543 503.591 254.402C503.082 247.261 502.827 237.187 502.827 224.18V164.118C502.827 151.876 499.772 145.755 493.661 145.755H479.911V269.705H453.939V2.29535H494.806C503.973 2.29535 511.866 5.48336 518.486 11.8594C525.361 17.9803 528.799 27.1617 528.799 39.4036V110.177ZM493.661 126.627C499.772 126.627 502.827 120.634 502.827 108.647V43.2293C502.827 36.5982 501.809 31.7525 499.772 28.692C497.735 25.6315 495.188 24.1013 492.133 24.1013H479.911V126.627H493.661Z" stroke="white" stroke-width="2" mask="url(#path-1-inside-1)"/>
</svg>
