<svg width="1142" height="251" viewBox="0 0 1142 251" fill="none" xmlns="http://www.w3.org/2000/svg">
<path d="M51.2552 45.578L50.5621 46.2988L50.5762 46.3124L50.5908 46.3254L51.2552 45.578ZM51.8588 155.74L52.4588 156.54L52.4639 156.536L51.8588 155.74ZM20.7721 161.172V160.172H19.7721V161.172H20.7721ZM20.7721 249V250H21.7721V249H20.7721ZM0.248798 249H-0.751202V250H0.248798V249ZM0.248798 38.0326V37.0326H-0.751202V38.0326H0.248798ZM36.4664 58.8577L37.2984 58.303L36.4664 58.8577ZM20.7721 55.236V54.236H19.7721V55.236H20.7721ZM20.7721 144.271H19.7721V145.271H20.7721V144.271ZM32.5428 39.0326C39.5273 39.0326 45.5166 41.4473 50.5621 46.2988L51.9483 44.8571C46.531 39.6482 40.0453 37.0326 32.5428 37.0326V39.0326ZM50.5908 46.3254C55.7458 50.9075 58.4042 57.8371 58.4042 67.3085H60.4042C60.4042 57.4638 57.6299 49.9064 51.9196 44.8306L50.5908 46.3254ZM58.4042 67.3085V136.424H60.4042V67.3085H58.4042ZM58.4042 136.424C58.4042 145.308 55.9402 151.382 51.2538 154.944L52.4639 156.536C57.8379 152.452 60.4042 145.648 60.4042 136.424H58.4042ZM51.2588 154.94C46.6354 158.407 40.8217 160.172 33.7501 160.172V162.172C41.1654 162.172 47.4242 160.316 52.4588 156.54L51.2588 154.94ZM33.7501 160.172H20.7721V162.172H33.7501V160.172ZM19.7721 161.172V249H21.7721V161.172H19.7721ZM20.7721 248H0.248798V250H20.7721V248ZM1.2488 249V38.0326H-0.751202V249H1.2488ZM0.248798 39.0326H32.5428V37.0326H0.248798V39.0326ZM39.8809 70.3267C39.8809 65.0354 39.0748 60.9677 37.2984 58.303L35.6343 59.4124C37.0773 61.5769 37.8809 65.1551 37.8809 70.3267H39.8809ZM37.2984 58.303C35.5463 55.6748 33.2497 54.236 30.4301 54.236V56.236C32.4396 56.236 34.1671 57.2117 35.6343 59.4124L37.2984 58.303ZM30.4301 54.236H20.7721V56.236H30.4301V54.236ZM19.7721 55.236V144.271H21.7721V55.236H19.7721ZM20.7721 145.271H31.6374V143.271H20.7721V145.271ZM31.6374 145.271C33.0153 145.271 34.2665 144.931 35.353 144.222C36.4343 143.516 37.2956 142.482 37.9606 141.179C39.2759 138.604 39.8809 134.867 39.8809 130.086H37.8809C37.8809 134.761 37.2786 138.117 36.1794 140.27C35.6372 141.332 34.9893 142.071 34.2598 142.547C33.5354 143.02 32.6739 143.271 31.6374 143.271V145.271ZM39.8809 130.086V70.3267H37.8809V130.086H39.8809ZM100.432 191.957L101.428 191.868L101.346 190.957H100.432V191.957ZM82.0213 191.957V190.957H81.1072L81.0253 191.868L82.0213 191.957ZM76.8905 249V250H77.8046L77.8864 249.09L76.8905 249ZM59.3853 249L58.3895 248.909L58.2896 250H59.3853V249ZM78.7013 38.0326V37.0326H77.7887L77.7055 37.9415L78.7013 38.0326ZM104.657 38.0326L105.653 37.9358L105.565 37.0326H104.657V38.0326ZM125.181 249V250H126.283L126.176 248.903L125.181 249ZM105.563 249L104.567 249.09L104.649 250H105.563V249ZM83.2285 176.565L82.2328 176.473L82.132 177.565H83.2285V176.565ZM98.9228 176.565V177.565H100.015L99.9189 176.477L98.9228 176.565ZM91.6793 94.7735L92.6754 94.6853L92.5947 93.7735H91.6793V94.7735ZM90.7739 94.7735V93.7735H89.8619L89.7781 94.6816L90.7739 94.7735ZM100.432 190.957H82.0213V192.957H100.432V190.957ZM81.0253 191.868L75.8945 248.91L77.8864 249.09L83.0173 192.047L81.0253 191.868ZM76.8905 248H59.3853V250H76.8905V248ZM60.3811 249.091L79.6972 38.1238L77.7055 37.9415L58.3895 248.909L60.3811 249.091ZM78.7013 39.0326H104.657V37.0326H78.7013V39.0326ZM103.662 38.1295L124.185 249.097L126.176 248.903L105.653 37.9358L103.662 38.1295ZM125.181 248H105.563V250H125.181V248ZM106.559 248.91L101.428 191.868L99.4359 192.047L104.567 249.09L106.559 248.91ZM83.2285 177.565H98.9228V175.565H83.2285V177.565ZM99.9189 176.477L92.6754 94.6853L90.6832 94.8617L97.9267 176.653L99.9189 176.477ZM91.6793 93.7735H90.7739V95.7735H91.6793V93.7735ZM89.7781 94.6816L82.2328 176.473L84.2243 176.657L91.7696 94.8654L89.7781 94.6816ZM175.48 249L174.496 249.182L174.648 250H175.48V249ZM148.015 100.81L148.998 100.628L148.846 99.8098H148.015V100.81ZM147.713 100.81V99.8098H146.713V100.81H147.713ZM147.713 249V250H148.713V249H147.713ZM130.509 249H129.509V250H130.509V249ZM130.509 38.0326V37.0326H129.509V38.0326H130.509ZM153.749 38.0326L154.734 37.8577L154.587 37.0326H153.749V38.0326ZM179.705 184.11L178.72 184.285L180.705 184.11H179.705ZM179.705 38.0326V37.0326H178.705V38.0326H179.705ZM198.417 38.0326H199.417V37.0326H198.417V38.0326ZM198.417 249V250H199.417V249H198.417ZM176.463 248.818L148.998 100.628L147.031 100.992L174.496 249.182L176.463 248.818ZM148.015 99.8098H147.713V101.81H148.015V99.8098ZM146.713 100.81V249H148.713V100.81H146.713ZM147.713 248H130.509V250H147.713V248ZM131.509 249V38.0326H129.509V249H131.509ZM130.509 39.0326H153.749V37.0326H130.509V39.0326ZM152.764 38.2076L178.72 184.285L180.69 183.935L154.734 37.8577L152.764 38.2076ZM180.705 184.11V38.0326H178.705V184.11H180.705ZM179.705 39.0326H198.417V37.0326H179.705V39.0326ZM197.417 38.0326V249H199.417V38.0326H197.417ZM198.417 248H175.48V250H198.417V248ZM264.767 55.236V56.236H265.767V55.236H264.767ZM244.545 55.236V54.236H243.545V55.236H244.545ZM244.545 249V250H245.545V249H244.545ZM224.324 249H223.324V250H224.324V249ZM224.324 55.236H225.324V54.236H224.324V55.236ZM204.102 55.236H203.102V56.236H204.102V55.236ZM204.102 38.0326V37.0326H203.102V38.0326H204.102ZM264.767 38.0326H265.767V37.0326H264.767V38.0326ZM264.767 54.236H244.545V56.236H264.767V54.236ZM243.545 55.236V249H245.545V55.236H243.545ZM244.545 248H224.324V250H244.545V248ZM225.324 249V55.236H223.324V249H225.324ZM224.324 54.236H204.102V56.236H224.324V54.236ZM205.102 55.236V38.0326H203.102V55.236H205.102ZM204.102 39.0326H264.767V37.0326H204.102V39.0326ZM263.767 38.0326V55.236H265.767V38.0326H263.767ZM329.062 38.0326H330.062V37.0326H329.062V38.0326ZM329.062 249V250H330.062V249H329.062ZM308.841 249H307.841V250H308.841V249ZM308.841 151.213H309.841V150.213H308.841V151.213ZM291.638 151.213V150.213H290.638V151.213H291.638ZM291.638 249V250H292.638V249H291.638ZM271.114 249H270.114V250H271.114V249ZM271.114 38.0326V37.0326H270.114V38.0326H271.114ZM291.638 38.0326H292.638V37.0326H291.638V38.0326ZM291.638 136.122H290.638V137.122H291.638V136.122ZM308.841 136.122V137.122H309.841V136.122H308.841ZM308.841 38.0326V37.0326H307.841V38.0326H308.841ZM328.062 38.0326V249H330.062V38.0326H328.062ZM329.062 248H308.841V250H329.062V248ZM309.841 249V151.213H307.841V249H309.841ZM308.841 150.213H291.638V152.213H308.841V150.213ZM290.638 151.213V249H292.638V151.213H290.638ZM291.638 248H271.114V250H291.638V248ZM272.114 249V38.0326H270.114V249H272.114ZM271.114 39.0326H291.638V37.0326H271.114V39.0326ZM290.638 38.0326V136.122H292.638V38.0326H290.638ZM291.638 137.122H308.841V135.122H291.638V137.122ZM309.841 136.122V38.0326H307.841V136.122H309.841ZM308.841 39.0326H329.062V37.0326H308.841V39.0326ZM387.173 55.236V56.236H388.173V55.236H387.173ZM387.173 38.0326H388.173V37.0326H387.173V38.0326ZM339.789 38.0326V37.0326H338.789V38.0326H339.789ZM339.789 249H338.789V250H339.789V249ZM388.682 249V250H389.682V249H388.682ZM388.682 231.797H389.682V230.797H388.682V231.797ZM360.312 231.797H359.312V232.797H360.312V231.797ZM360.312 151.213V150.213H359.312V151.213H360.312ZM381.137 151.213V152.213H382.137V151.213H381.137ZM381.137 135.82H382.137V134.82H381.137V135.82ZM360.312 135.82H359.312V136.82H360.312V135.82ZM360.312 55.236V54.236H359.312V55.236H360.312ZM358.199 26.2619L357.37 26.8211L357.667 27.2619H358.199V26.2619ZM340.694 0.306004V-0.693996H338.813L339.865 0.865145L340.694 0.306004ZM358.803 0.306004L359.709 -0.115726L359.44 -0.693996H358.803V0.306004ZM370.875 26.2619V27.2619H372.443L371.782 25.8402L370.875 26.2619ZM388.173 55.236V38.0326H386.173V55.236H388.173ZM387.173 37.0326H339.789V39.0326H387.173V37.0326ZM338.789 38.0326V249H340.789V38.0326H338.789ZM339.789 250H388.682V248H339.789V250ZM389.682 249V231.797H387.682V249H389.682ZM388.682 230.797H360.312V232.797H388.682V230.797ZM361.312 231.797V151.213H359.312V231.797H361.312ZM360.312 152.213H381.137V150.213H360.312V152.213ZM382.137 151.213V135.82H380.137V151.213H382.137ZM381.137 134.82H360.312V136.82H381.137V134.82ZM361.312 135.82V55.236H359.312V135.82H361.312ZM360.312 56.236H387.173V54.236H360.312V56.236ZM359.028 25.7028L341.523 -0.253138L339.865 0.865145L357.37 26.8211L359.028 25.7028ZM340.694 1.306H358.803V-0.693996H340.694V1.306ZM357.896 0.727736L369.969 26.6837L371.782 25.8402L359.709 -0.115726L357.896 0.727736ZM370.875 25.2619H358.199V27.2619H370.875V25.2619ZM453.105 137.631L453.937 138.186L453.945 138.173L453.953 138.161L453.105 137.631ZM445.56 143.667L445.244 142.719L442.078 143.774L445.302 144.633L445.56 143.667ZM453.105 149.703L452.257 150.233L452.265 150.246L452.273 150.258L453.105 149.703ZM457.331 239.946L456.342 240.098L456.343 240.104L457.331 239.946ZM459.443 249V250H461.209L460.301 248.486L459.443 249ZM438.92 249L438.056 249.504L438.346 250H438.92V249ZM436.204 236.927L435.206 236.999L436.204 236.927ZM417.491 151.213V150.213H416.491V151.213H417.491ZM417.491 249V250H418.491V249H417.491ZM396.968 249H395.968V250H396.968V249ZM396.968 38.0326V37.0326H395.968V38.0326H396.968ZM447.974 45.578L447.281 46.2988L447.295 46.3124L447.31 46.3254L447.974 45.578ZM433.186 58.8577L434.018 58.303L433.186 58.8577ZM417.491 55.236V54.236H416.491V55.236H417.491ZM417.491 136.122H416.491V137.122H417.491V136.122ZM455.123 123.144C455.123 129.511 454.123 134.116 452.257 137.101L453.953 138.161C456.112 134.707 457.123 129.654 457.123 123.144H455.123ZM452.273 137.076C450.366 139.937 448.022 141.793 445.244 142.719L445.876 144.616C449.134 143.53 451.82 141.362 453.937 138.186L452.273 137.076ZM445.302 144.633C448.025 145.36 450.349 147.18 452.257 150.233L453.953 149.173C451.837 145.788 449.131 143.585 445.818 142.701L445.302 144.633ZM452.273 150.258C454.12 153.028 455.123 157.514 455.123 163.889H457.123C457.123 157.386 456.115 152.415 453.937 149.149L452.273 150.258ZM455.123 163.889V213.084H457.123V163.889H455.123ZM455.123 213.084C455.123 225.761 455.525 234.783 456.342 240.098L458.319 239.794C457.527 234.645 457.123 225.76 457.123 213.084H455.123ZM456.343 240.104C456.747 242.629 457.129 244.667 457.489 246.209C457.838 247.706 458.193 248.859 458.586 249.514L460.301 248.486C460.09 248.135 459.791 247.276 459.436 245.755C459.092 244.278 458.719 242.292 458.318 239.788L456.343 240.104ZM459.443 248H438.92V250H459.443V248ZM439.784 248.496C438.497 246.291 437.602 242.462 437.201 236.856L435.206 236.999C435.611 242.66 436.526 246.88 438.056 249.504L439.784 248.496ZM437.201 236.856C436.801 231.258 436.6 223.338 436.6 213.084H434.6C434.6 223.354 434.801 231.329 435.206 236.999L437.201 236.856ZM436.6 213.084V165.7H434.6V213.084H436.6ZM436.6 165.7C436.6 160.82 435.995 157.011 434.684 154.387C434.021 153.061 433.161 152.007 432.08 151.286C430.993 150.561 429.739 150.213 428.357 150.213V152.213C429.389 152.213 430.247 152.468 430.971 152.95C431.701 153.437 432.35 154.193 432.895 155.282C433.997 157.487 434.6 160.922 434.6 165.7H436.6ZM428.357 150.213H417.491V152.213H428.357V150.213ZM416.491 151.213V249H418.491V151.213H416.491ZM417.491 248H396.968V250H417.491V248ZM397.968 249V38.0326H395.968V249H397.968ZM396.968 39.0326H429.262V37.0326H396.968V39.0326ZM429.262 39.0326C436.246 39.0326 442.236 41.4473 447.281 46.2988L448.667 44.8571C443.25 39.6482 436.764 37.0326 429.262 37.0326V39.0326ZM447.31 46.3254C452.465 50.9075 455.123 57.8371 455.123 67.3085H457.123C457.123 57.4638 454.349 49.9064 448.639 44.8306L447.31 46.3254ZM455.123 67.3085V123.144H457.123V67.3085H455.123ZM428.357 137.122C429.734 137.122 430.986 136.782 432.072 136.073C433.153 135.367 434.015 134.333 434.68 133.03C435.995 130.455 436.6 126.718 436.6 121.937H434.6C434.6 126.612 433.998 129.968 432.899 132.121C432.356 133.183 431.708 133.922 430.979 134.398C430.255 134.871 429.393 135.122 428.357 135.122V137.122ZM436.6 121.937V70.3267H434.6V121.937H436.6ZM436.6 70.3267C436.6 65.0354 435.794 60.9677 434.018 58.303L432.353 59.4124C433.796 61.5769 434.6 65.1551 434.6 70.3267H436.6ZM434.018 58.303C432.265 55.6748 429.969 54.236 427.149 54.236V56.236C429.159 56.236 430.886 57.2117 432.353 59.4124L434.018 58.303ZM427.149 54.236H417.491V56.236H427.149V54.236ZM416.491 55.236V136.122H418.491V55.236H416.491ZM417.491 137.122H428.357V135.122H417.491V137.122ZM488.818 55.236V54.236H487.818V55.236H488.818ZM488.818 135.82H487.818V136.82H488.818V135.82ZM509.643 135.82H510.643V134.82H509.643V135.82ZM509.643 151.213V152.213H510.643V151.213H509.643ZM488.818 151.213V150.213H487.818V151.213H488.818ZM488.818 231.797H487.818V232.797H488.818V231.797ZM517.189 231.797H518.189V230.797H517.189V231.797ZM517.189 249V250H518.189V249H517.189ZM468.295 249H467.295V250H468.295V249ZM468.295 38.0326V37.0326H467.295V38.0326H468.295ZM515.68 38.0326H516.68V37.0326H515.68V38.0326ZM515.68 55.236V56.236H516.68V55.236H515.68ZM487.818 55.236V135.82H489.818V55.236H487.818ZM488.818 136.82H509.643V134.82H488.818V136.82ZM508.643 135.82V151.213H510.643V135.82H508.643ZM509.643 150.213H488.818V152.213H509.643V150.213ZM487.818 151.213V231.797H489.818V151.213H487.818ZM488.818 232.797H517.189V230.797H488.818V232.797ZM516.189 231.797V249H518.189V231.797H516.189ZM517.189 248H468.295V250H517.189V248ZM469.295 249V38.0326H467.295V249H469.295ZM468.295 39.0326H515.68V37.0326H468.295V39.0326ZM514.68 38.0326V55.236H516.68V38.0326H514.68ZM515.68 54.236H488.818V56.236H515.68V54.236ZM559.959 249H558.959V250H559.959V249ZM559.959 38.0326V37.0326H558.959V38.0326H559.959ZM601.609 39.5417L601.311 40.4962L601.319 40.4987L601.327 40.5011L601.609 39.5417ZM610.362 44.6725L609.654 45.3796L609.684 45.409L609.716 45.4359L610.362 44.6725ZM616.7 53.4251L615.786 53.8313L616.7 53.4251ZM610.362 242.662L611.037 243.399L611.04 243.397L610.362 242.662ZM601.609 247.491L601.327 246.532L601.319 246.534L601.311 246.536L601.609 247.491ZM580.482 55.236V54.236H579.482V55.236H580.482ZM580.482 231.797H579.482V232.797H580.482V231.797ZM596.176 228.779L596.957 229.403L596.972 229.385L596.985 229.367L596.176 228.779ZM596.176 58.5559L595.368 59.1441L595.381 59.1627L595.396 59.1806L596.176 58.5559ZM560.959 249V38.0326H558.959V249H560.959ZM559.959 39.0326H591.951V37.0326H559.959V39.0326ZM591.951 39.0326C595.064 39.0326 598.183 39.5189 601.311 40.4962L601.907 38.5872C598.596 37.5525 595.276 37.0326 591.951 37.0326V39.0326ZM601.327 40.5011C604.594 41.4621 607.364 43.0888 609.654 45.3796L611.069 43.9654C608.531 41.4273 605.465 39.6334 601.891 38.5824L601.327 40.5011ZM609.716 45.4359C612.2 47.5377 614.228 50.3257 615.786 53.8313L617.613 53.019C615.952 49.281 613.755 46.234 611.008 43.9091L609.716 45.4359ZM615.786 53.8313C617.324 57.2912 618.114 61.5708 618.114 66.7049H620.114C620.114 61.3762 619.295 56.8025 617.613 53.019L615.786 53.8313ZM618.114 66.7049V220.328H620.114V66.7049H618.114ZM618.114 220.328C618.114 225.462 617.324 229.741 615.786 233.201L617.613 234.014C619.295 230.23 620.114 225.656 620.114 220.328H618.114ZM615.786 233.201C614.225 236.713 612.188 239.615 609.683 241.927L611.04 243.397C613.766 240.88 615.955 237.746 617.613 234.014L615.786 233.201ZM609.686 241.925C607.394 244.026 604.614 245.565 601.327 246.532L601.891 248.45C605.445 247.405 608.501 245.724 611.037 243.399L609.686 241.925ZM601.311 246.536C598.183 247.514 595.064 248 591.951 248V250C595.276 250 598.596 249.48 601.907 248.445L601.311 246.536ZM591.951 248H559.959V250H591.951V248ZM579.482 55.236V231.797H581.482V55.236H579.482ZM580.482 232.797H590.442V230.797H580.482V232.797ZM590.442 232.797C593.011 232.797 595.193 231.609 596.957 229.403L595.396 228.154C593.941 229.972 592.3 230.797 590.442 230.797V232.797ZM596.985 229.367C598.793 226.881 599.591 222.779 599.591 217.31H597.591C597.591 222.705 596.779 226.249 595.368 228.19L596.985 229.367ZM599.591 217.31V69.723H597.591V217.31H599.591ZM599.591 69.723C599.591 64.2698 598.799 60.2333 596.957 57.9312L595.396 59.1806C596.773 60.9028 597.591 64.3109 597.591 69.723H599.591ZM596.985 57.9678C595.237 55.5642 593.051 54.236 590.442 54.236V56.236C592.259 56.236 593.896 57.1211 595.368 59.1441L596.985 57.9678ZM590.442 54.236H580.482V56.236H590.442V54.236ZM650.041 55.236V54.236H649.041V55.236H650.041ZM650.041 135.82H649.041V136.82H650.041V135.82ZM670.866 135.82H671.866V134.82H670.866V135.82ZM670.866 151.213V152.213H671.866V151.213H670.866ZM650.041 151.213V150.213H649.041V151.213H650.041ZM650.041 231.797H649.041V232.797H650.041V231.797ZM678.411 231.797H679.411V230.797H678.411V231.797ZM678.411 249V250H679.411V249H678.411ZM629.517 249H628.517V250H629.517V249ZM629.517 38.0326V37.0326H628.517V38.0326H629.517ZM676.902 38.0326H677.902V37.0326H676.902V38.0326ZM676.902 55.236V56.236H677.902V55.236H676.902ZM649.041 55.236V135.82H651.041V55.236H649.041ZM650.041 136.82H670.866V134.82H650.041V136.82ZM669.866 135.82V151.213H671.866V135.82H669.866ZM670.866 150.213H650.041V152.213H670.866V150.213ZM649.041 151.213V231.797H651.041V151.213H649.041ZM650.041 232.797H678.411V230.797H650.041V232.797ZM677.411 231.797V249H679.411V231.797H677.411ZM678.411 248H629.517V250H678.411V248ZM630.517 249V38.0326H628.517V249H630.517ZM629.517 39.0326H676.902V37.0326H629.517V39.0326ZM675.902 38.0326V55.236H677.902V38.0326H675.902ZM676.902 54.236H650.041V56.236H676.902V54.236ZM737.781 249L738.132 248.064L738.106 248.054L738.079 248.046L737.781 249ZM729.028 243.869L728.321 244.576L728.335 244.59L728.35 244.604L729.028 243.869ZM722.992 234.815L722.07 235.203L722.074 235.212L722.078 235.221L722.992 234.815ZM722.992 52.5197L723.906 52.9258L723.91 52.9168L723.914 52.9077L722.992 52.5197ZM729.028 43.1635L728.35 42.4287L728.335 42.4422L728.321 42.4564L729.028 43.1635ZM737.781 38.0326L738.079 38.9871L738.106 38.9788L738.132 38.969L737.781 38.0326ZM762.228 38.0326L761.877 38.969L761.911 38.9817L761.946 38.992L762.228 38.0326ZM770.98 43.1635L770.273 43.8706L770.287 43.8847L770.302 43.8983L770.98 43.1635ZM777.318 52.5197L776.397 52.9077L776.401 52.9168L776.405 52.9258L777.318 52.5197ZM779.733 123.144V124.144H780.733V123.144H779.733ZM759.21 123.144H758.21V124.144H759.21V123.144ZM756.795 57.0469L755.963 57.6016L755.974 57.6185L755.986 57.635L756.795 57.0469ZM743.515 56.7451L744.324 57.3332L743.515 56.7451ZM743.515 230.288L742.683 230.842L742.695 230.859L742.707 230.876L743.515 230.288ZM756.795 230.288L757.604 230.876L757.616 230.859L757.627 230.842L756.795 230.288ZM759.21 163.587V162.587H758.21V163.587H759.21ZM779.733 163.587H780.733V162.587H779.733V163.587ZM777.318 234.815L778.232 235.221L778.236 235.212L778.24 235.203L777.318 234.815ZM770.98 243.869L770.302 243.134L770.287 243.148L770.273 243.162L770.98 243.869ZM762.228 249L761.946 248.041L761.911 248.051L761.877 248.064L762.228 249ZM747.741 249.811C744.441 249.811 741.24 249.229 738.132 248.064L737.43 249.936C740.761 251.185 744.2 251.811 747.741 251.811V249.811ZM738.079 248.046C735.009 247.086 732.22 245.454 729.707 243.134L728.35 244.604C731.068 247.113 734.114 248.902 737.483 249.954L738.079 248.046ZM729.735 243.162C727.421 240.847 725.474 237.936 723.906 234.409L722.078 235.221C723.73 238.937 725.807 242.062 728.321 244.576L729.735 243.162ZM723.914 234.427C722.367 230.754 721.578 226.365 721.578 221.233H719.578C719.578 226.564 720.397 231.229 722.07 235.203L723.914 234.427ZM721.578 221.233V65.7994H719.578V221.233H721.578ZM721.578 65.7994C721.578 60.6653 722.368 56.3858 723.906 52.9258L722.078 52.1135C720.397 55.8971 719.578 60.4707 719.578 65.7994H721.578ZM723.914 52.9077C725.484 49.1791 727.43 46.1762 729.735 43.8706L728.321 42.4564C725.798 44.9797 723.72 48.2144 722.07 52.1316L723.914 52.9077ZM729.707 43.8983C732.22 41.5785 735.009 39.9466 738.079 38.9871L737.483 37.0782C734.114 38.1308 731.068 39.9194 728.35 42.4287L729.707 43.8983ZM738.132 38.969C741.24 37.8036 744.441 37.2218 747.741 37.2218V35.2218C744.2 35.2218 740.761 35.8472 737.43 37.0963L738.132 38.969ZM747.741 37.2218H752.57V35.2218H747.741V37.2218ZM752.57 37.2218C755.661 37.2218 758.762 37.8009 761.877 38.969L762.579 37.0963C759.255 35.8498 755.917 35.2218 752.57 35.2218V37.2218ZM761.946 38.992C765.213 39.953 767.982 41.5797 770.273 43.8706L771.688 42.4564C769.149 39.9182 766.084 38.1244 762.51 37.0733L761.946 38.992ZM770.302 43.8983C772.797 46.2012 774.833 49.1948 776.397 52.9077L778.24 52.1316C776.584 48.1986 774.395 44.9548 771.659 42.4287L770.302 43.8983ZM776.405 52.9258C777.942 56.3858 778.733 60.6653 778.733 65.7994H780.733C780.733 60.4707 779.914 55.8971 778.232 52.1135L776.405 52.9258ZM778.733 65.7994V123.144H780.733V65.7994H778.733ZM779.733 122.144H759.21V124.144H779.733V122.144ZM760.21 123.144V68.5158H758.21V123.144H760.21ZM760.21 68.5158C760.21 63.046 759.411 58.944 757.604 56.4587L755.986 57.635C757.398 59.5763 758.21 63.1203 758.21 68.5158H760.21ZM757.627 56.4922C755.896 53.896 753.71 52.4251 751.061 52.4251V54.4251C752.838 54.4251 754.475 55.3688 755.963 57.6016L757.627 56.4922ZM751.061 52.4251H749.25V54.4251H751.061V52.4251ZM749.25 52.4251C746.64 52.4251 744.455 53.7534 742.707 56.1569L744.324 57.3332C745.795 55.3102 747.433 54.4251 749.25 54.4251V52.4251ZM742.707 56.1569C740.894 58.6496 740.101 62.9643 740.101 68.8176H742.101C742.101 63.0007 742.918 59.2671 744.324 57.3332L742.707 56.1569ZM740.101 68.8176V218.215H742.101V68.8176H740.101ZM740.101 218.215C740.101 223.891 740.902 228.17 742.683 230.842L744.347 229.733C742.91 227.577 742.101 223.807 742.101 218.215H740.101ZM742.707 230.876C744.455 233.279 746.64 234.608 749.25 234.608V232.608C747.433 232.608 745.795 231.722 744.324 229.699L742.707 230.876ZM749.25 234.608H751.061V232.608H749.25V234.608ZM751.061 234.608C753.67 234.608 755.856 233.279 757.604 230.876L755.986 229.699C754.515 231.722 752.878 232.608 751.061 232.608V234.608ZM757.627 230.842C759.409 228.17 760.21 223.891 760.21 218.215H758.21C758.21 223.807 757.401 227.577 755.963 229.733L757.627 230.842ZM760.21 218.215V163.587H758.21V218.215H760.21ZM759.21 164.587H779.733V162.587H759.21V164.587ZM778.733 163.587V221.233H780.733V163.587H778.733ZM778.733 221.233C778.733 226.365 777.943 230.754 776.397 234.427L778.24 235.203C779.913 231.229 780.733 226.564 780.733 221.233H778.733ZM776.405 234.409C774.844 237.92 772.807 240.822 770.302 243.134L771.659 244.604C774.385 242.087 776.574 238.953 778.232 235.221L776.405 234.409ZM770.273 243.162C767.982 245.453 765.213 247.08 761.946 248.041L762.51 249.959C766.084 248.908 769.149 247.114 771.688 244.576L770.273 243.162ZM761.877 248.064C758.762 249.232 755.661 249.811 752.57 249.811V251.811C755.917 251.811 759.255 251.183 762.579 249.936L761.877 248.064ZM752.57 249.811H747.741V251.811H752.57V249.811ZM826.375 191.957L827.371 191.868L827.289 190.957H826.375V191.957ZM807.964 191.957V190.957H807.05L806.968 191.868L807.964 191.957ZM802.833 249V250H803.748L803.829 249.09L802.833 249ZM785.328 249L784.332 248.909L784.233 250H785.328V249ZM804.644 38.0326V37.0326H803.732L803.648 37.9415L804.644 38.0326ZM830.6 38.0326L831.596 37.9358L831.508 37.0326H830.6V38.0326ZM851.124 249V250H852.226L852.119 248.903L851.124 249ZM831.506 249L830.51 249.09L830.592 250H831.506V249ZM809.172 176.565L808.176 176.473L808.075 177.565H809.172V176.565ZM824.866 176.565V177.565H825.958L825.862 176.477L824.866 176.565ZM817.622 94.7735L818.618 94.6853L818.538 93.7735H817.622V94.7735ZM816.717 94.7735V93.7735H815.805L815.721 94.6816L816.717 94.7735ZM826.375 190.957H807.964V192.957H826.375V190.957ZM806.968 191.868L801.837 248.91L803.829 249.09L808.96 192.047L806.968 191.868ZM802.833 248H785.328V250H802.833V248ZM786.324 249.091L805.64 38.1238L803.648 37.9415L784.332 248.909L786.324 249.091ZM804.644 39.0326H830.6V37.0326H804.644V39.0326ZM829.605 38.1295L850.128 249.097L852.119 248.903L831.596 37.9358L829.605 38.1295ZM851.124 248H831.506V250H851.124V248ZM832.502 248.91L827.371 191.868L825.379 192.047L830.51 249.09L832.502 248.91ZM809.172 177.565H824.866V175.565H809.172V177.565ZM825.862 176.477L818.618 94.6853L816.626 94.8617L823.87 176.653L825.862 176.477ZM817.622 93.7735H816.717V95.7735H817.622V93.7735ZM815.721 94.6816L808.176 176.473L810.167 176.657L817.713 94.8654L815.721 94.6816ZM913.193 137.631L914.025 138.186L914.034 138.173L914.041 138.161L913.193 137.631ZM905.648 143.667L905.332 142.719L902.166 143.774L905.39 144.633L905.648 143.667ZM913.193 149.703L912.345 150.233L912.353 150.246L912.361 150.258L913.193 149.703ZM917.419 239.946L916.43 240.098L916.431 240.104L917.419 239.946ZM919.531 249V250H921.298L920.389 248.486L919.531 249ZM899.008 249L898.144 249.504L898.434 250H899.008V249ZM896.292 236.927L895.294 236.999L896.292 236.927ZM877.579 151.213V150.213H876.579V151.213H877.579ZM877.579 249V250H878.579V249H877.579ZM857.056 249H856.056V250H857.056V249ZM857.056 38.0326V37.0326H856.056V38.0326H857.056ZM908.062 45.578L907.369 46.2988L907.383 46.3124L907.398 46.3254L908.062 45.578ZM893.274 58.8577L894.106 58.303L893.274 58.8577ZM877.579 55.236V54.236H876.579V55.236H877.579ZM877.579 136.122H876.579V137.122H877.579V136.122ZM915.211 123.144C915.211 129.511 914.211 134.116 912.345 137.101L914.041 138.161C916.2 134.707 917.211 129.654 917.211 123.144H915.211ZM912.361 137.076C910.454 139.937 908.11 141.793 905.332 142.719L905.964 144.616C909.222 143.53 911.908 141.362 914.025 138.186L912.361 137.076ZM905.39 144.633C908.113 145.36 910.437 147.18 912.345 150.233L914.041 149.173C911.925 145.788 909.219 143.585 905.906 142.701L905.39 144.633ZM912.361 150.258C914.208 153.028 915.211 157.514 915.211 163.889H917.211C917.211 157.386 916.203 152.415 914.025 149.149L912.361 150.258ZM915.211 163.889V213.084H917.211V163.889H915.211ZM915.211 213.084C915.211 225.761 915.613 234.783 916.43 240.098L918.407 239.794C917.615 234.645 917.211 225.76 917.211 213.084H915.211ZM916.431 240.104C916.835 242.629 917.217 244.667 917.577 246.209C917.926 247.706 918.281 248.859 918.674 249.514L920.389 248.486C920.178 248.135 919.879 247.276 919.524 245.755C919.18 244.278 918.807 242.292 918.406 239.788L916.431 240.104ZM919.531 248H899.008V250H919.531V248ZM899.872 248.496C898.585 246.291 897.69 242.462 897.289 236.856L895.294 236.999C895.699 242.66 896.614 246.88 898.144 249.504L899.872 248.496ZM897.289 236.856C896.889 231.258 896.688 223.338 896.688 213.084H894.688C894.688 223.354 894.889 231.329 895.294 236.999L897.289 236.856ZM896.688 213.084V165.7H894.688V213.084H896.688ZM896.688 165.7C896.688 160.82 896.083 157.011 894.772 154.387C894.109 153.061 893.25 152.007 892.168 151.286C891.081 150.561 889.827 150.213 888.445 150.213V152.213C889.477 152.213 890.336 152.468 891.059 152.95C891.789 153.437 892.439 154.193 892.983 155.282C894.086 157.487 894.688 160.922 894.688 165.7H896.688ZM888.445 150.213H877.579V152.213H888.445V150.213ZM876.579 151.213V249H878.579V151.213H876.579ZM877.579 248H857.056V250H877.579V248ZM858.056 249V38.0326H856.056V249H858.056ZM857.056 39.0326H889.35V37.0326H857.056V39.0326ZM889.35 39.0326C896.335 39.0326 902.324 41.4473 907.369 46.2988L908.756 44.8571C903.338 39.6482 896.853 37.0326 889.35 37.0326V39.0326ZM907.398 46.3254C912.553 50.9075 915.211 57.8371 915.211 67.3085H917.211C917.211 57.4638 914.437 49.9064 908.727 44.8306L907.398 46.3254ZM915.211 67.3085V123.144H917.211V67.3085H915.211ZM888.445 137.122C889.823 137.122 891.074 136.782 892.16 136.073C893.242 135.367 894.103 134.333 894.768 133.03C896.083 130.455 896.688 126.718 896.688 121.937H894.688C894.688 126.612 894.086 129.968 892.987 132.121C892.444 133.183 891.797 133.922 891.067 134.398C890.343 134.871 889.481 135.122 888.445 135.122V137.122ZM896.688 121.937V70.3267H894.688V121.937H896.688ZM896.688 70.3267C896.688 65.0354 895.882 60.9677 894.106 58.303L892.442 59.4124C893.885 61.5769 894.688 65.1551 894.688 70.3267H896.688ZM894.106 58.303C892.354 55.6748 890.057 54.236 887.237 54.236V56.236C889.247 56.236 890.974 57.2117 892.442 59.4124L894.106 58.303ZM887.237 54.236H877.579V56.236H887.237V54.236ZM876.579 55.236V136.122H878.579V55.236H876.579ZM877.579 137.122H888.445V135.122H877.579V137.122ZM984.52 55.236V56.236H985.52V55.236H984.52ZM964.299 55.236V54.236H963.299V55.236H964.299ZM964.299 249V250H965.299V249H964.299ZM944.077 249H943.077V250H944.077V249ZM944.077 55.236H945.077V54.236H944.077V55.236ZM923.856 55.236H922.856V56.236H923.856V55.236ZM923.856 38.0326V37.0326H922.856V38.0326H923.856ZM984.52 38.0326H985.52V37.0326H984.52V38.0326ZM984.52 54.236H964.299V56.236H984.52V54.236ZM963.299 55.236V249H965.299V55.236H963.299ZM964.299 248H944.077V250H964.299V248ZM945.077 249V55.236H943.077V249H945.077ZM944.077 54.236H923.856V56.236H944.077V54.236ZM924.856 55.236V38.0326H922.856V55.236H924.856ZM923.856 39.0326H984.52V37.0326H923.856V39.0326ZM983.52 38.0326V55.236H985.52V38.0326H983.52ZM1011.39 38.0326H1012.39V37.0326H1011.39V38.0326ZM1011.39 249V250H1012.39V249H1011.39ZM990.868 249H989.868V250H990.868V249ZM990.868 38.0326V37.0326H989.868V38.0326H990.868ZM1010.39 38.0326V249H1012.39V38.0326H1010.39ZM1011.39 248H990.868V250H1011.39V248ZM991.868 249V38.0326H989.868V249H991.868ZM990.868 39.0326H1011.39V37.0326H990.868V39.0326ZM1042.63 55.236V54.236H1041.63V55.236H1042.63ZM1042.63 135.82H1041.63V136.82H1042.63V135.82ZM1063.46 135.82H1064.46V134.82H1063.46V135.82ZM1063.46 151.213V152.213H1064.46V151.213H1063.46ZM1042.63 151.213V150.213H1041.63V151.213H1042.63ZM1042.63 231.797H1041.63V232.797H1042.63V231.797ZM1071 231.797H1072V230.797H1071V231.797ZM1071 249V250H1072V249H1071ZM1022.11 249H1021.11V250H1022.11V249ZM1022.11 38.0326V37.0326H1021.11V38.0326H1022.11ZM1069.49 38.0326H1070.49V37.0326H1069.49V38.0326ZM1069.49 55.236V56.236H1070.49V55.236H1069.49ZM1041.63 55.236V135.82H1043.63V55.236H1041.63ZM1042.63 136.82H1063.46V134.82H1042.63V136.82ZM1062.46 135.82V151.213H1064.46V135.82H1062.46ZM1063.46 150.213H1042.63V152.213H1063.46V150.213ZM1041.63 151.213V231.797H1043.63V151.213H1041.63ZM1042.63 232.797H1071V230.797H1042.63V232.797ZM1070 231.797V249H1072V231.797H1070ZM1071 248H1022.11V250H1071V248ZM1023.11 249V38.0326H1021.11V249H1023.11ZM1022.11 39.0326H1069.49V37.0326H1022.11V39.0326ZM1068.49 38.0326V55.236H1070.49V38.0326H1068.49ZM1069.49 54.236H1042.63V56.236H1069.49V54.236ZM1135.43 137.631L1136.26 138.186L1136.27 138.173L1136.27 138.161L1135.43 137.631ZM1127.88 143.667L1127.57 142.719L1124.4 143.774L1127.62 144.633L1127.88 143.667ZM1135.43 149.703L1134.58 150.233L1134.59 150.246L1134.59 150.258L1135.43 149.703ZM1139.65 239.946L1138.66 240.098L1138.66 240.104L1139.65 239.946ZM1141.76 249V250H1143.53L1142.62 248.486L1141.76 249ZM1121.24 249L1120.38 249.504L1120.67 250H1121.24V249ZM1118.53 236.927L1117.53 236.999L1118.53 236.927ZM1099.81 151.213V150.213H1098.81V151.213H1099.81ZM1099.81 249V250H1100.81V249H1099.81ZM1079.29 249H1078.29V250H1079.29V249ZM1079.29 38.0326V37.0326H1078.29V38.0326H1079.29ZM1130.3 45.578L1129.6 46.2988L1129.62 46.3124L1129.63 46.3254L1130.3 45.578ZM1115.51 58.8577L1116.34 58.303L1115.51 58.8577ZM1099.81 55.236V54.236H1098.81V55.236H1099.81ZM1099.81 136.122H1098.81V137.122H1099.81V136.122ZM1137.44 123.144C1137.44 129.511 1136.44 134.116 1134.58 137.101L1136.27 138.161C1138.43 134.707 1139.44 129.654 1139.44 123.144H1137.44ZM1134.59 137.076C1132.69 139.937 1130.34 141.793 1127.57 142.719L1128.2 144.616C1131.46 143.53 1134.14 141.362 1136.26 138.186L1134.59 137.076ZM1127.62 144.633C1130.35 145.36 1132.67 147.18 1134.58 150.233L1136.27 149.173C1134.16 145.788 1131.45 143.585 1128.14 142.701L1127.62 144.633ZM1134.59 150.258C1136.44 153.028 1137.44 157.514 1137.44 163.889H1139.44C1139.44 157.386 1138.44 152.415 1136.26 149.149L1134.59 150.258ZM1137.44 163.889V213.084H1139.44V163.889H1137.44ZM1137.44 213.084C1137.44 225.761 1137.85 234.783 1138.66 240.098L1140.64 239.794C1139.85 234.645 1139.44 225.76 1139.44 213.084H1137.44ZM1138.66 240.104C1139.07 242.629 1139.45 244.667 1139.81 246.209C1140.16 247.706 1140.51 248.859 1140.91 249.514L1142.62 248.486C1142.41 248.135 1142.11 247.276 1141.76 245.755C1141.41 244.278 1141.04 242.292 1140.64 239.788L1138.66 240.104ZM1141.76 248H1121.24V250H1141.76V248ZM1122.11 248.496C1120.82 246.291 1119.92 242.462 1119.52 236.856L1117.53 236.999C1117.93 242.66 1118.85 246.88 1120.38 249.504L1122.11 248.496ZM1119.52 236.856C1119.12 231.258 1118.92 223.338 1118.92 213.084H1116.92C1116.92 223.354 1117.12 231.329 1117.53 236.999L1119.52 236.856ZM1118.92 213.084V165.7H1116.92V213.084H1118.92ZM1118.92 165.7C1118.92 160.82 1118.32 157.011 1117.01 154.387C1116.34 153.061 1115.48 152.007 1114.4 151.286C1113.31 150.561 1112.06 150.213 1110.68 150.213V152.213C1111.71 152.213 1112.57 152.468 1113.29 152.95C1114.02 153.437 1114.67 154.193 1115.22 155.282C1116.32 157.487 1116.92 160.922 1116.92 165.7H1118.92ZM1110.68 150.213H1099.81V152.213H1110.68V150.213ZM1098.81 151.213V249H1100.81V151.213H1098.81ZM1099.81 248H1079.29V250H1099.81V248ZM1080.29 249V38.0326H1078.29V249H1080.29ZM1079.29 39.0326H1111.58V37.0326H1079.29V39.0326ZM1111.58 39.0326C1118.57 39.0326 1124.56 41.4473 1129.6 46.2988L1130.99 44.8571C1125.57 39.6482 1119.09 37.0326 1111.58 37.0326V39.0326ZM1129.63 46.3254C1134.79 50.9075 1137.44 57.8371 1137.44 67.3085H1139.44C1139.44 57.4638 1136.67 49.9064 1130.96 44.8306L1129.63 46.3254ZM1137.44 67.3085V123.144H1139.44V67.3085H1137.44ZM1110.68 137.122C1112.06 137.122 1113.31 136.782 1114.39 136.073C1115.47 135.367 1116.34 134.333 1117 133.03C1118.32 130.455 1118.92 126.718 1118.92 121.937H1116.92C1116.92 126.612 1116.32 129.968 1115.22 132.121C1114.68 133.183 1114.03 133.922 1113.3 134.398C1112.58 134.871 1111.71 135.122 1110.68 135.122V137.122ZM1118.92 121.937V70.3267H1116.92V121.937H1118.92ZM1118.92 70.3267C1118.92 65.0354 1118.12 60.9677 1116.34 58.303L1114.67 59.4124C1116.12 61.5769 1116.92 65.1551 1116.92 70.3267H1118.92ZM1116.34 58.303C1114.59 55.6748 1112.29 54.236 1109.47 54.236V56.236C1111.48 56.236 1113.21 57.2117 1114.67 59.4124L1116.34 58.303ZM1109.47 54.236H1099.81V56.236H1109.47V54.236ZM1098.81 55.236V136.122H1100.81V55.236H1098.81ZM1099.81 137.122H1110.68V135.122H1099.81V137.122Z" fill="white"/>
</svg>
