<svg width="1142" height="251" viewBox="0 0 1142 251" fill="none" xmlns="http://www.w3.org/2000/svg">
<path d="M32.5428 38.0326C39.7863 38.0326 46.0238 40.5478 51.2552 45.578C56.6878 50.407 59.4042 57.6505 59.4042 67.3085V136.424C59.4042 145.478 56.8891 151.917 51.8588 155.74C47.0298 159.362 40.9936 161.172 33.7501 161.172H20.7721V249H0.248798V38.0326H32.5428ZM38.8809 70.3267C38.8809 65.0952 38.076 61.2723 36.4664 58.8577C34.8567 56.4432 32.8446 55.236 30.4301 55.236H20.7721V144.271H31.6374C36.4664 144.271 38.8809 139.542 38.8809 130.086V70.3267ZM100.432 191.957H82.0213L76.8905 249H59.3853L78.7013 38.0326H104.657L125.181 249H105.563L100.432 191.957ZM83.2285 176.565H98.9228L91.6793 94.7735H90.7739L83.2285 176.565ZM175.48 249L148.015 100.81H147.713V249H130.509V38.0326H153.749L179.705 184.11V38.0326H198.417V249H175.48ZM264.767 55.236H244.545V249H224.324V55.236H204.102V38.0326H264.767V55.236ZM329.062 38.0326V249H308.841V151.213H291.638V249H271.114V38.0326H291.638V136.122H308.841V38.0326H329.062ZM387.173 55.236V38.0326H339.789V249H388.682V231.797H360.312V151.213H381.137V135.82H360.312V55.236H387.173ZM358.199 26.2619L340.694 0.306004H358.803L370.875 26.2619H358.199ZM456.123 123.144C456.123 129.583 455.117 134.412 453.105 137.631C451.093 140.649 448.578 142.661 445.56 143.667C448.578 144.472 451.093 146.484 453.105 149.703C455.117 152.722 456.123 157.45 456.123 163.889V213.084C456.123 225.76 456.526 234.714 457.331 239.946C458.135 244.976 458.84 247.994 459.443 249H438.92C437.512 246.585 436.606 242.561 436.204 236.927C435.801 231.294 435.6 223.346 435.6 213.084V165.7C435.6 156.042 433.186 151.213 428.357 151.213H417.491V249H396.968V38.0326H429.262C436.505 38.0326 442.743 40.5478 447.974 45.578C453.407 50.407 456.123 57.6505 456.123 67.3085V123.144ZM428.357 136.122C433.186 136.122 435.6 131.393 435.6 121.937V70.3267C435.6 65.0952 434.795 61.2723 433.186 58.8577C431.576 56.4432 429.564 55.236 427.149 55.236H417.491V136.122H428.357ZM488.818 55.236V135.82H509.643V151.213H488.818V231.797H517.189V249H468.295V38.0326H515.68V55.236H488.818ZM559.959 249V38.0326H591.951C595.17 38.0326 598.39 38.5357 601.609 39.5417C605.03 40.5478 607.947 42.258 610.362 44.6725C612.977 46.8858 615.09 49.8034 616.7 53.4251C618.309 57.0469 619.114 61.4735 619.114 66.7049V220.328C619.114 225.559 618.309 229.986 616.7 233.608C615.09 237.229 612.977 240.247 610.362 242.662C607.947 244.875 605.03 246.485 601.609 247.491C598.39 248.497 595.17 249 591.951 249H559.959ZM580.482 55.236V231.797H590.442C592.655 231.797 594.567 230.791 596.176 228.779C597.786 226.565 598.591 222.742 598.591 217.31V69.723C598.591 64.2904 597.786 60.568 596.176 58.5559C594.567 56.3426 592.655 55.236 590.442 55.236H580.482ZM650.041 55.236V135.82H670.866V151.213H650.041V231.797H678.411V249H629.517V38.0326H676.902V55.236H650.041ZM747.741 250.811C744.32 250.811 741 250.207 737.781 249C734.562 247.994 731.644 246.284 729.028 243.869C726.614 241.455 724.602 238.437 722.992 234.815C721.382 230.992 720.578 226.465 720.578 221.233V65.7994C720.578 60.568 721.382 56.1414 722.992 52.5197C724.602 48.6967 726.614 45.578 729.028 43.1635C731.644 40.749 734.562 39.0387 737.781 38.0326C741 36.8254 744.32 36.2218 747.741 36.2218H752.57C755.789 36.2218 759.008 36.8254 762.228 38.0326C765.648 39.0387 768.566 40.749 770.98 43.1635C773.596 45.578 775.709 48.6967 777.318 52.5197C778.928 56.1414 779.733 60.568 779.733 65.7994V123.144H759.21V68.5158C759.21 63.0831 758.405 59.2602 756.795 57.0469C755.186 54.6324 753.274 53.4251 751.061 53.4251H749.25C747.037 53.4251 745.125 54.5318 743.515 56.7451C741.906 58.9584 741.101 62.9825 741.101 68.8176V218.215C741.101 223.849 741.906 227.873 743.515 230.288C745.125 232.501 747.037 233.608 749.25 233.608H751.061C753.274 233.608 755.186 232.501 756.795 230.288C758.405 227.873 759.21 223.849 759.21 218.215V163.587H779.733V221.233C779.733 226.465 778.928 230.992 777.318 234.815C775.709 238.437 773.596 241.455 770.98 243.869C768.566 246.284 765.648 247.994 762.228 249C759.008 250.207 755.789 250.811 752.57 250.811H747.741ZM826.375 191.957H807.964L802.833 249H785.328L804.644 38.0326H830.6L851.124 249H831.506L826.375 191.957ZM809.172 176.565H824.866L817.622 94.7735H816.717L809.172 176.565ZM916.211 123.144C916.211 129.583 915.205 134.412 913.193 137.631C911.181 140.649 908.666 142.661 905.648 143.667C908.666 144.472 911.181 146.484 913.193 149.703C915.205 152.722 916.211 157.45 916.211 163.889V213.084C916.211 225.76 916.614 234.714 917.419 239.946C918.224 244.976 918.928 247.994 919.531 249H899.008C897.6 246.585 896.694 242.561 896.292 236.927C895.889 231.294 895.688 223.346 895.688 213.084V165.7C895.688 156.042 893.274 151.213 888.445 151.213H877.579V249H857.056V38.0326H889.35C896.594 38.0326 902.831 40.5478 908.062 45.578C913.495 50.407 916.211 57.6505 916.211 67.3085V123.144ZM888.445 136.122C893.274 136.122 895.688 131.393 895.688 121.937V70.3267C895.688 65.0952 894.883 61.2723 893.274 58.8577C891.664 56.4432 889.652 55.236 887.237 55.236H877.579V136.122H888.445ZM984.52 55.236H964.299V249H944.077V55.236H923.856V38.0326H984.52V55.236ZM1011.39 38.0326V249H990.868V38.0326H1011.39ZM1042.63 55.236V135.82H1063.46V151.213H1042.63V231.797H1071V249H1022.11V38.0326H1069.49V55.236H1042.63ZM1138.44 123.144C1138.44 129.583 1137.44 134.412 1135.43 137.631C1133.41 140.649 1130.9 142.661 1127.88 143.667C1130.9 144.472 1133.41 146.484 1135.43 149.703C1137.44 152.722 1138.44 157.45 1138.44 163.889V213.084C1138.44 225.76 1138.85 234.714 1139.65 239.946C1140.46 244.976 1141.16 247.994 1141.76 249H1121.24C1119.83 246.585 1118.93 242.561 1118.53 236.927C1118.12 231.294 1117.92 223.346 1117.92 213.084V165.7C1117.92 156.042 1115.51 151.213 1110.68 151.213H1099.81V249H1079.29V38.0326H1111.58C1118.83 38.0326 1125.06 40.5478 1130.3 45.578C1135.73 50.407 1138.44 57.6505 1138.44 67.3085V123.144ZM1110.68 136.122C1115.51 136.122 1117.92 131.393 1117.92 121.937V70.3267C1117.92 65.0952 1117.12 61.2723 1115.51 58.8577C1113.9 56.4432 1111.89 55.236 1109.47 55.236H1099.81V136.122H1110.68Z" fill="#F7F7F7"/>
</svg>
